<svg xmlns="http://www.w3.org/2000/svg" width="79.393" height="79.418" viewBox="0 0 79.393 79.418">
  <g id="XMLID_2048_" transform="translate(383.916 836.582)">
    <g id="XMLID_2036_" transform="translate(-383.916 -837)">
      <g id="XMLID_2037_">
        <g id="XMLID_2038_">
          <path id="XMLID_2047_" d="M71.657,76.316H39.793A36.607,36.607,0,1,1,61.672,10.36h-1.7a1.551,1.551,0,1,0,0,3.1h5.89a1.551,1.551,0,0,0,1.551-1.551V6.021a1.551,1.551,0,1,0-3.1,0V8.472A39.709,39.709,0,1,0,39.793,79.418H71.657a1.551,1.551,0,1,0,0-3.1Z" transform="translate(-0.084 0.418)" fill="#e05e80"/>
          <path id="XMLID_2046_" d="M71.9,78.486a1.551,1.551,0,0,0-2.139.485A29.6,29.6,0,1,0,79,69.707a1.551,1.551,0,1,0,1.66,2.621,26.5,26.5,0,1,1-4.582,41.155,26.354,26.354,0,0,1-3.7-32.857A1.551,1.551,0,0,0,71.9,78.486Z" transform="translate(-55.218 -54.716)" fill="#e05e80"/>
          <path id="XMLID_2042_" d="M334.308,228.042a1.969,1.969,0,0,0,2.455-1.322l4.247-14.158a1.972,1.972,0,0,0-1.888-2.538h-8.495a1.972,1.972,0,1,0,0,3.943h5.845l-3.486,11.62A1.972,1.972,0,0,0,334.308,228.042Z" transform="translate(-295.655 -177.917)" fill="#e05e80"/>
          <path id="XMLID_2040_" d="M119.732,118.1a1.549,1.549,0,1,0,1.1.455A1.563,1.563,0,0,0,119.732,118.1Z" transform="translate(-99.861 -99.781)" fill="#e05e80"/>
          <path id="XMLID_2039_" d="M493.353,492h-.021a1.551,1.551,0,0,0,0,3.1h.021a1.551,1.551,0,0,0,0-3.1Z" transform="translate(-415.512 -415.684)" fill="#e05e80"/>
        </g>
      </g>
    </g>
  </g>
</svg>
