<svg xmlns="http://www.w3.org/2000/svg" width="33.951" height="33.951" viewBox="0 0 33.951 33.951">
  <g id="instagram-logo" transform="translate(0)">
    <path id="Path_21" data-name="Path 21" d="M24.581,0H9.369A9.38,9.38,0,0,0,0,9.369V24.581a9.38,9.38,0,0,0,9.369,9.369H24.581a9.38,9.38,0,0,0,9.369-9.369V9.369A9.38,9.38,0,0,0,24.581,0Zm6.357,24.581a6.364,6.364,0,0,1-6.357,6.357H9.369a6.364,6.364,0,0,1-6.357-6.357V9.369A6.364,6.364,0,0,1,9.369,3.012H24.581a6.364,6.364,0,0,1,6.357,6.357V24.581Z" fill="#fff"/>
    <path id="Path_22" data-name="Path 22" d="M49.716,40.97a8.748,8.748,0,1,0,8.748,8.748A8.758,8.758,0,0,0,49.716,40.97Zm0,14.484a5.736,5.736,0,1,1,5.736-5.736A5.742,5.742,0,0,1,49.716,55.454Z" transform="translate(-32.741 -32.743)" fill="#fff"/>
    <path id="Path_23" data-name="Path 23" d="M121.13,28.251a2.208,2.208,0,1,0,1.562.647A2.218,2.218,0,0,0,121.13,28.251Z" transform="translate(-95.04 -22.578)" fill="#fff"/>
  </g>
</svg>
