<svg id="Слой_1" data-name="Слой 1" xmlns="http://www.w3.org/2000/svg" viewBox="0 0 146.01 96.2"><defs><style>.cls-1{fill:#e05e80;}.cls-2{fill:#4e4884;}</style></defs><title>logo_black</title><g id="logo"><path id="Path_16" data-name="Path 16" class="cls-1" d="M71.63,0A19.06,19.06,0,1,0,90.68,19.05h0a19,19,0,0,0-19-19Zm-.14,20.5a6.15,6.15,0,1,1,6.14-6.14h0A6.15,6.15,0,0,1,71.49,20.5Z" transform="translate(0 0)"/><path id="Path_17" data-name="Path 17" class="cls-2" d="M71.63,42.35a18.36,18.36,0,0,1-9.74-2.86.43.43,0,0,0-.59.14.39.39,0,0,0-.06.24v7a.45.45,0,0,0,.44.45l2.81,0h0c0,.07.17,5.07.2,6.66a.9.9,0,0,0,.35.69l3,2.86a.78.78,0,0,1,.13,1l-2.59,4a.74.74,0,0,0,0,.83l2.8,3.73a.86.86,0,0,1,0,.9L66,71.9a.45.45,0,0,0,0,.52l2.66,3.83a.83.83,0,0,1,0,1l-2.45,3.87a.36.36,0,0,0,0,.44l1.62,3.63a.78.78,0,0,1,0,1l-1.69,3.42a.57.57,0,0,0,0,.79l4.94,5.38a1,1,0,0,0,1.45.07l1.34-1.17a.3.3,0,0,0,.1-.2v-47l1.93-.2V93.1l2-2.28a.5.5,0,0,0,.14-.35c0-3,0-41.25,0-43.21a.12.12,0,0,1,.11-.14h0c.48,0,2.14,0,3.14-.07a.78.78,0,0,0,.79-.77V40a.44.44,0,0,0-.43-.44.46.46,0,0,0-.23.06A18,18,0,0,1,71.63,42.35Z" transform="translate(0 0)"/><path id="Path_18" data-name="Path 18" class="cls-2" d="M99.41,40.28V31H146V46.5h-9.32V40.28H118.05V55.82h18.64v9.32H118.05V86.88h6.22V96.2H99.41V86.88h6.22V40.28" transform="translate(0 0)"/><path id="Path_19" data-name="Path 19" class="cls-2" d="M9.32,46.5H0V31H43.49v9.32s-26.85,42.8-31.06,46.6H34.17V80.67h9.32V96.2L0,96.17V86.88l31.07-46.6H9.32" transform="translate(0 0)"/></g></svg>