<svg xmlns="http://www.w3.org/2000/svg" width="146.014" height="96.203" viewBox="0 0 146.014 96.203">
  <g id="logo" transform="translate(-9 -12.3)">
    <path id="Path_16" data-name="Path 16" d="M180.354,12.3a19.054,19.054,0,1,0,19.054,19.054A19.048,19.048,0,0,0,180.354,12.3Zm-.138,20.5a6.144,6.144,0,1,1,6.144-6.144A6.158,6.158,0,0,1,180.216,32.8Z" transform="translate(-99.728)" fill="#e05e80"/>
    <path id="Path_17" data-name="Path 17" d="M196.79,129.447a18.339,18.339,0,0,1-9.734-2.865.43.43,0,0,0-.656.38v6.973a.457.457,0,0,0,.449.449l2.8.035h0c0,.069.173,5.074.207,6.662a.9.9,0,0,0,.345.69l2.969,2.865a.789.789,0,0,1,.138,1l-2.589,4a.729.729,0,0,0,.035.828l2.8,3.728a.843.843,0,0,1,0,.9l-2.382,3.9a.469.469,0,0,0,0,.518l2.658,3.832a.828.828,0,0,1-.035,1l-2.451,3.866a.363.363,0,0,0,0,.449l1.622,3.624a.781.781,0,0,1,0,1l-1.691,3.417a.584.584,0,0,0,0,.794l4.936,5.385a1.033,1.033,0,0,0,1.45.069L199,181.777a.3.3,0,0,0,.1-.207V134.556l1.933-.207V180.19l2-2.278a.443.443,0,0,0,.138-.345c0-3,.035-41.25,0-43.217a.126.126,0,0,1,.138-.138c.483,0,2.14-.035,3.141-.069a.781.781,0,0,0,.794-.794v-6.282a.436.436,0,0,0-.656-.38A18.1,18.1,0,0,1,196.79,129.447Z" transform="translate(-116.164 -74.793)" fill="#fff"/>
    <path id="Path_18" data-name="Path 18" d="M297,111.32V102h46.6v15.533h-9.32V111.32H315.64v15.533h18.64v9.32H315.64V157.92h6.213v9.32H297v-9.32h6.213v-46.6" transform="translate(-188.587 -58.737)" fill="#fff"/>
    <path id="Path_19" data-name="Path 19" d="M18.32,117.533H9V102H52.493v9.32s-26.855,42.8-31.067,46.6H43.173v-6.213h9.32V167.24L9,167.206V157.92l31.067-46.6H18.32" transform="translate(0 -58.737)" fill="#fff"/>
  </g>
</svg>
