<?xml version="1.0" encoding="utf-8"?>
<!-- Generator: Adobe Illustrator 23.0.0, SVG Export Plug-In . SVG Version: 6.00 Build 0)  -->
<svg version="1.1" id="Слой_1" xmlns="http://www.w3.org/2000/svg" xmlns:xlink="http://www.w3.org/1999/xlink" x="0px" y="0px"
	 viewBox="0 0 146 96.2" style="enable-background:new 0 0 146 96.2;" xml:space="preserve">
<style type="text/css">
	.st0{fill:#E05E80;}
	.st1{fill:#4E4884;}
</style>
<g id="logo">
	<path id="Path_16" class="st0" d="M71.6,0C61.1,0,52.6,8.5,52.6,19.1c0,10.5,8.5,19.1,19.1,19.1c10.5,0,19.1-8.5,19.1-19.1
		c0,0,0,0,0,0l0,0C90.7,8.6,82.2,0,71.6,0L71.6,0z M71.5,20.5c-3.4,0-6.2-2.7-6.2-6.1c0-3.4,2.7-6.2,6.1-6.2c3.4,0,6.2,2.7,6.2,6.1
		c0,0,0,0,0,0l0,0C77.6,17.7,74.9,20.5,71.5,20.5z"/>
	<path id="Path_17" class="st1" d="M71.6,42.3c-3.5,0-6.8-1-9.7-2.9c-0.2-0.1-0.5-0.1-0.6,0.1c0,0.1-0.1,0.2-0.1,0.2v7
		c0,0.2,0.2,0.4,0.4,0.5h2.8l0,0c0,0.1,0.2,5.1,0.2,6.7c0,0.3,0.1,0.5,0.3,0.7l3,2.9c0.3,0.3,0.3,0.7,0.1,1l-2.6,4
		c-0.2,0.3-0.2,0.6,0,0.8l2.8,3.7c0.2,0.3,0.2,0.6,0,0.9L66,71.9c-0.1,0.2-0.1,0.4,0,0.5l2.7,3.8c0.2,0.3,0.2,0.7,0,1l-2.4,3.9
		c-0.1,0.1-0.1,0.3,0,0.4l1.6,3.6c0.2,0.3,0.2,0.7,0,1l-1.7,3.4c-0.2,0.2-0.2,0.6,0,0.8l4.9,5.4c0.4,0.4,1,0.5,1.4,0.1c0,0,0,0,0,0
		l1.3-1.2c0.1-0.1,0.1-0.1,0.1-0.2v-47l1.9-0.2v45.8l2-2.3c0.1-0.1,0.1-0.2,0.1-0.3c0-3,0-41.3,0-43.2c0-0.1,0-0.1,0.1-0.1
		c0,0,0,0,0,0l0,0c0.5,0,2.1,0,3.1-0.1c0.4,0,0.8-0.3,0.8-0.8c0,0,0,0,0,0V40c0-0.2-0.2-0.4-0.4-0.4c-0.1,0-0.2,0-0.2,0.1
		C78.5,41.5,75.1,42.4,71.6,42.3z"/>
	<path id="Path_18" class="st1" d="M99.4,40.3V31H146v15.5h-9.3v-6.2h-18.6v15.5h18.6v9.3h-18.6v21.7h6.2v9.3H99.4v-9.3h6.2V40.3"/>
	<path id="Path_19" class="st1" d="M9.3,46.5H0V31h43.5v9.3c0,0-26.9,42.8-31.1,46.6h21.7v-6.3h9.3v15.5L0,96.2v-9.3l31.1-46.6H9.3"
		/>
</g>
</svg>
