<svg xmlns="http://www.w3.org/2000/svg" width="20.434" height="22.354" viewBox="0 0 20.434 22.354">
  <g id="Group_88" data-name="Group 88" transform="translate(0)">
    <path id="Path_11" data-name="Path 11" d="M14.6,0H10.343A8.1,8.1,0,0,0,2.255,8.086v3.836a8.1,8.1,0,0,0,5.108,7.52v2.487a.426.426,0,0,0,.711.315l2.469-2.236H14.6a8.1,8.1,0,0,0,8.088-8.086V8.086A8.1,8.1,0,0,0,14.6,0Zm7.237,11.922A7.244,7.244,0,0,1,14.6,19.157H10.379a.425.425,0,0,0-.286.11l-1.879,1.7V19.147a.425.425,0,0,0-.284-.4,7.25,7.25,0,0,1-4.825-6.824V8.086A7.244,7.244,0,0,1,10.343.851H14.6a7.244,7.244,0,0,1,7.237,7.235Z" transform="translate(-2.255 0)" fill="#fff"/>
    <path id="Path_12" data-name="Path 12" d="M23.506,18.724l-2.616-1.7a1.274,1.274,0,0,0-1.767.375L19,17.588a4.242,4.242,0,0,1-3.129-3.016l.309-.269h0a1.279,1.279,0,0,0,.125-1.8l-2.047-2.355a.426.426,0,0,0-.6-.042l-1.285,1.117a2.537,2.537,0,0,0-.427,2.906.423.423,0,0,0,.028.062,19.453,19.453,0,0,0,2.836,3.74,23.39,23.39,0,0,0,4.951,3.438,2.13,2.13,0,0,0,2.944-.626l.927-1.428A.427.427,0,0,0,23.506,18.724ZM21.99,20.278a1.291,1.291,0,0,1-1.8.355,23.17,23.17,0,0,1-4.771-3.3,19,19,0,0,1-2.683-3.53c-.337-.945-.278-1.527.2-1.94l.964-.838,1.768,2.033a.421.421,0,0,1-.041.6l-.522.454a.425.425,0,0,0-.128.447,5.18,5.18,0,0,0,3.887,3.877l.184.061a.424.424,0,0,0,.492-.172l.3-.465a.423.423,0,0,1,.589-.124l2.26,1.467Z" transform="translate(-7.662 -5.743)" fill="#fff"/>
    <path id="Path_13" data-name="Path 13" d="M27.806,16.225a.426.426,0,1,0-.233.819,1.926,1.926,0,0,1,1.318,1.321.426.426,0,0,0,.41.31.436.436,0,0,0,.116-.016.426.426,0,0,0,.294-.525A2.783,2.783,0,0,0,27.806,16.225Z" transform="translate(-16.617 -9.308)" fill="#fff"/>
    <path id="Path_14" data-name="Path 14" d="M30.98,16.465a.436.436,0,0,0,.116-.016.426.426,0,0,0,.294-.525,5.406,5.406,0,0,0-3.7-3.707.426.426,0,0,0-.233.819,4.549,4.549,0,0,1,3.112,3.12A.426.426,0,0,0,30.98,16.465Z" transform="translate(-16.551 -7.006)" fill="#fff"/>
    <path id="Path_15" data-name="Path 15" d="M27.259,7.56a.426.426,0,0,0-.233.819A7.707,7.707,0,0,1,32.3,13.664a.426.426,0,0,0,.41.31.436.436,0,0,0,.116-.016.426.426,0,0,0,.294-.525A8.564,8.564,0,0,0,27.259,7.56Z" transform="translate(-16.303 -4.332)" fill="#fff"/>
  </g>
</svg>
