<svg xmlns="http://www.w3.org/2000/svg" width="49.901" height="31.188" viewBox="0 0 49.901 31.188">
  <path id="vk" d="M25.252,35.688c7.219,0,4.645-4.57,5.2-5.884-.008-.981-.017-1.925.017-2.5.457.129,1.537.676,3.765,2.842,3.441,3.472,4.321,5.541,7.1,5.541h5.117a3.377,3.377,0,0,0,2.888-1.235,3.23,3.23,0,0,0,.37-2.99c-1.141-3.585-7.8-9.774-8.213-10.427.062-.121.162-.281.214-.364h0c1.314-1.736,6.329-9.25,7.067-12.257a.039.039,0,0,0,0-.017,3,3,0,0,0-.345-2.765,3.179,3.179,0,0,0-2.7-1.133H40.617a3.768,3.768,0,0,0-3.67,2.437c-1.1,2.8-4.19,8.548-6.506,10.583-.071-2.884-.023-5.086.015-6.722.075-3.192.316-6.3-3-6.3H19.418c-2.075,0-4.061,2.266-1.911,4.957,1.88,2.358.676,3.672,1.081,10.213C17.008,17.975,14.2,13.4,12.209,7.55,11.652,5.968,10.808,4.5,8.431,4.5H3.314C1.239,4.5,0,5.633,0,7.527c0,4.254,9.417,28.161,25.252,28.161ZM8.431,7.621c.451,0,.5,0,.832.95,2.036,5.994,6.6,14.864,9.936,14.864,2.505,0,2.505-2.568,2.505-3.535l0-7.7a7.355,7.355,0,0,0-1.674-4.585l7.294.008c0,.035-.042,8.514.021,10.569,0,2.917,2.316,4.589,5.932.929A44.448,44.448,0,0,0,39.835,8.12c.156-.374.291-.5.782-.5h5.138c0,.006,0,.012,0,.019-.468,2.183-5.086,9.14-6.631,11.3-.025.033-.048.069-.071.1a3.106,3.106,0,0,0,.094,4.063h0c.121.146.435.487.892.961,1.422,1.468,6.3,6.487,6.732,8.483-.287.046-.6.012-5.433.023-1.029,0-1.834-1.539-4.9-4.637-2.761-2.686-4.553-3.784-6.186-3.784-3.169,0-2.938,2.572-2.909,5.682.01,3.372-.01,2.306.012,2.518a6.268,6.268,0,0,1-2.1.218C12.059,32.569,3.468,11.63,3.137,7.627c.114-.01,1.688,0,5.294-.006Z" transform="translate(0 -4.5)" fill="#fff"/>
</svg>
