<svg xmlns="http://www.w3.org/2000/svg" width="21.285" height="21.285" viewBox="0 0 21.285 21.285">
  <g id="whatsapp-logo" transform="translate(0 0)">
    <path id="WhatsApp" d="M21.285,10.368a10.467,10.467,0,0,1-15.5,9.078L0,21.285l1.886-5.563a10.259,10.259,0,0,1-1.5-5.354,10.45,10.45,0,0,1,20.9,0ZM10.836,1.651a8.761,8.761,0,0,0-8.785,8.717,8.626,8.626,0,0,0,1.673,5.111l-1.1,3.237L6,17.644a8.794,8.794,0,0,0,13.619-7.275A8.762,8.762,0,0,0,10.836,1.651Zm5.277,11.105c-.065-.106-.235-.17-.491-.3s-1.516-.742-1.75-.827-.406-.127-.577.127-.661.827-.811,1-.3.191-.555.064a7.011,7.011,0,0,1-2.059-1.261A7.662,7.662,0,0,1,8.444,9.8c-.149-.254-.016-.392.112-.518s.256-.3.384-.445A1.7,1.7,0,0,0,9.2,8.412a.463.463,0,0,0-.021-.445C9.112,7.84,8.6,6.589,8.386,6.08s-.426-.424-.576-.424-.32-.021-.491-.021a.945.945,0,0,0-.683.318,2.842,2.842,0,0,0-.9,2.12A4.918,4.918,0,0,0,6.785,10.7a10.47,10.47,0,0,0,4.375,3.837c2.6,1.017,2.6.678,3.074.635a2.591,2.591,0,0,0,1.729-1.208A2.119,2.119,0,0,0,16.113,12.756Z" transform="translate(0 0)" fill="#fff"/>
  </g>
</svg>
