<svg xmlns="http://www.w3.org/2000/svg" width="98" height="89" viewBox="0 0 98 89"><g><g><g><path fill="#e05e80" d="M73.887 85.337h-1.565v-3.13h3.13v1.565c0 .864-.701 1.565-1.565 1.565zm-51.655-3.13h3.131v3.13h-1.565a1.566 1.566 0 0 1-1.566-1.565zM23.798 50.9h1.565v3.13h-3.13v-1.565c0-.864.7-1.565 1.565-1.565zm17.218-6.261h15.653v3.13H41.016zM69.19 80.64v4.696H28.494V80.64c0-.866-.7-1.565-1.566-1.565h-4.696V57.162h4.696c.866 0 1.566-.7 1.566-1.565V50.9H69.19v4.696c0 .865.7 1.565 1.565 1.565h4.696v21.914h-4.696c-.865 0-1.565.7-1.565 1.565zm6.261-28.175v1.565h-3.13v-3.13h1.565c.864 0 1.565.7 1.565 1.565zM59.8 47.77v-4.696c0-.865-.7-1.565-1.565-1.565H39.451c-.866 0-1.566.7-1.566 1.565v4.696H23.798a4.702 4.702 0 0 0-4.696 4.696v31.306a4.702 4.702 0 0 0 4.696 4.695h50.089a4.702 4.702 0 0 0 4.696-4.695V52.466a4.702 4.702 0 0 0-4.696-4.696z"/></g><g><path fill="#e05e80" d="M56.669 69.684h-4.696c-.866 0-1.565.7-1.565 1.565v4.696h-3.131V71.25c0-.865-.7-1.565-1.565-1.565h-4.696v-3.13h4.696c.865 0 1.565-.7 1.565-1.566v-4.696h3.13v4.696c0 .866.7 1.566 1.566 1.566h4.696zm1.565-6.261h-4.696v-4.696c0-.866-.7-1.565-1.565-1.565h-6.261c-.866 0-1.566.7-1.566 1.565v4.696h-4.695c-.866 0-1.566.7-1.566 1.565v6.261c0 .866.7 1.566 1.566 1.566h4.695v4.695c0 .866.7 1.566 1.566 1.566h6.26c.866 0 1.566-.7 1.566-1.566v-4.695h4.696c.866 0 1.565-.7 1.565-1.566v-6.26c0-.866-.7-1.566-1.565-1.566z"/></g><g><path fill="#e05e80" d="M15.323 8.638l-2.482 2.483-4.048-4.048 2.482-2.481c.42-.42.974-.65 1.566-.65.591 0 1.146.23 1.565.648l.917.918c.42.417.648.973.648 1.565 0 .591-.228 1.147-.648 1.565zm-7.178 7.177c-.838.837-2.293.837-3.13 0l-.918-.916a2.192 2.192 0 0 1-.648-1.565c0-.592.229-1.147.648-1.565L6.58 9.286l4.047 4.048zm10.957-8.742c0-1.43-.556-2.77-1.565-3.779l-.918-.917c-2.02-2.02-5.536-2.02-7.557 0L1.884 9.555a5.302 5.302 0 0 0-1.566 3.779c0 1.429.556 2.77 1.566 3.778l.917.918a5.31 5.31 0 0 0 3.779 1.565 5.31 5.31 0 0 0 3.778-1.565l7.179-7.177a5.309 5.309 0 0 0 1.565-3.78z"/></g><g><path fill="#e05e80" d="M15.971 28.987c0-.592.229-1.148.648-1.566l.918-.915c.42-.42.973-.65 1.565-.65s1.146.23 1.565.648l2.483 2.483-4.048 4.048-2.483-2.483a2.192 2.192 0 0 1-.648-1.565zm12.523 6.26c0 .593-.229 1.148-.648 1.566l-.918.916c-.837.837-2.293.837-3.13 0l-2.483-2.481 4.048-4.048 2.483 2.483c.42.418.648.973.648 1.565zm-3.131 6.262a5.31 5.31 0 0 0 3.779-1.565l.917-.916a5.309 5.309 0 0 0 1.565-3.78c0-1.43-.556-2.77-1.565-3.779l-7.179-7.178c-2.02-2.018-5.536-2.02-7.557 0l-.917.916a5.309 5.309 0 0 0-1.565 3.78c0 1.429.555 2.77 1.565 3.778l7.178 7.179a5.31 5.31 0 0 0 3.779 1.565z"/></g><g><path fill="#e05e80" d="M84.844 11.769c0-.724.177-1.4.471-2.012l6.238 6.238c-.614.293-1.29.47-2.013.47a4.702 4.702 0 0 1-4.696-4.696zm9.392 0c0 .723-.177 1.399-.472 2.011l-6.237-6.238a4.652 4.652 0 0 1 2.013-.47 4.702 4.702 0 0 1 4.696 4.697zM89.54 3.942c-4.316 0-7.827 3.511-7.827 7.827 0 4.315 3.511 7.826 7.827 7.826 4.315 0 7.826-3.51 7.826-7.826s-3.51-7.827-7.826-7.827z"/></g><g><path fill="#e05e80" d="M83.279 38.378c-.724 0-1.4-.176-2.012-.47l6.238-6.238c.293.613.47 1.29.47 2.013a4.702 4.702 0 0 1-4.696 4.695zm0-9.391c.723 0 1.399.177 2.011.47l-6.238 6.239a4.652 4.652 0 0 1-.47-2.013 4.702 4.702 0 0 1 4.697-4.696zm0-3.13c-4.316 0-7.827 3.51-7.827 7.826 0 4.315 3.511 7.826 7.827 7.826 4.315 0 7.826-3.51 7.826-7.826s-3.511-7.827-7.826-7.827z"/></g><g><g><g><g><path fill="#e05e80" d="M51.869 25.035a9.964 9.964 0 0 1-2.255-3.445.857.857 0 0 0-.787-.545h-4.08l-1.657-1.659a.857.857 0 0 0-1.212 0l-1.303 1.304-.593-.594a.857.857 0 0 0-1.212 0l-.593.594-1.482-1.482a.857.857 0 0 0-1.21 0l-1.838 1.838-1.704-.001-2.727-2.728.856-.856h14.805a.77.77 0 1 0 0-1.541H31.613l1.095-1.095H48.826a.856.856 0 0 0 .788-.545 9.971 9.971 0 0 1 2.255-3.444c3.915-3.915 10.285-3.915 14.2 0 3.914 3.914 3.914 10.284 0 14.199-3.916 3.915-10.285 3.915-14.2 0zm15.41-15.41c-4.582-4.584-12.039-4.584-16.622 0a11.68 11.68 0 0 0-2.41 3.487H32.353a.857.857 0 0 0-.606.251l-4.349 4.349a.857.857 0 0 0 0 1.21l3.584 3.585c.16.16.378.25.605.25l2.414.002c.227 0 .445-.09.606-.25l1.483-1.484 1.48 1.481a.857.857 0 0 0 1.212 0l.594-.593.593.594a.857.857 0 0 0 1.212 0l1.303-1.304 1.303 1.304c.16.16.379.25.606.25h3.854a11.674 11.674 0 0 0 2.41 3.49c4.583 4.582 12.04 4.582 16.623 0 4.582-4.583 4.582-12.04 0-16.623z"/></g></g></g><g><g><g><path fill="#e05e80" d="M62.97 18.992a1.497 1.497 0 0 1 0-2.114 1.497 1.497 0 0 1 2.115 0 1.497 1.497 0 0 1 0 2.114 1.497 1.497 0 0 1-2.115 0zm3.326-3.326a3.212 3.212 0 0 0-4.537 0 3.212 3.212 0 0 0 0 4.538 3.212 3.212 0 0 0 4.537 0 3.212 3.212 0 0 0 0-4.538z"/></g></g></g></g></g></g></svg>