<svg xmlns="http://www.w3.org/2000/svg" width="102" height="87" viewBox="0 0 102 87"><g><g><g><g><g><path fill="#4e4884" d="M58.076 70.008c-3.204 2.885-8.157 2.625-11.042-.579-2.885-3.204-2.625-8.156.579-11.041 3.204-2.886 8.156-2.626 11.041.578 2.886 3.204 2.626 8.157-.578 11.042zM45.869 56.45c-4.271 3.846-4.617 10.45-.771 14.722 3.846 4.271 10.45 4.617 14.722.771 4.271-3.846 4.617-10.45.771-14.722-3.846-4.271-10.45-4.617-14.722-.771z"/></g><g><path fill="#4e4884" d="M75.988 45.112l-10.7 9.636a15.411 15.411 0 0 0-.823-1.013l-.872-.969 10.652-9.59zM62.528 55.48c4.808 5.34 4.375 13.594-.965 18.402l-9.683 8.72L3.925 29.34a3.914 3.914 0 0 1 .29-5.52L20.677 8.997l5.23 5.81-3.872 3.488L48.73 47.945l5.618-1.551zM45.339 35.154l2.55-.542 2.179 10.26-.478.132-2.824-3.136zm12.078 10.754l3.448-10.616 2.478.805-3.912 12.048zm18.764-4.476l-1.744-1.937L61.85 50.83l-.405-.45 5.184-15.955-2.478-.806 8.052-24.785a3.913 3.913 0 0 1 4.927-2.51l.805-2.479c-3.415-1.109-7.098.769-8.21 4.184L61.67 32.814l-2.478-.805-3.79 11.662-.197-.219-2.622.724-2.69-12.655-2.548.541-3.14-14.767 2.423-3.732-6.182-4.013 1.592-2.451L40.572.197l-2.55.542 1.244 5.846-2.424 3.73 6.183 4.014-1.592 2.453 3.364 15.823-2.55.543 1.03 4.846-17.562-19.505L29.588 15 20.87 5.318 2.471 21.884a6.523 6.523 0 0 0-.482 9.2l49.698 55.197 11.62-10.463c5.404-4.865 6.601-12.665 3.39-18.834L79.67 45.305l-1.744-1.937 24.209-21.797-1.744-1.937z"/></g><g><path fill="#4e4884" d="M31.147 55.68L8.477 30.501l1.937-1.743 22.67 25.177z"/></g><g><path fill="#4e4884" d="M34.635 59.553l-1.744-1.937 1.937-1.744 1.743 1.937z"/></g></g></g></g></g></svg>