<svg id="surface1" xmlns="http://www.w3.org/2000/svg" width="60.839" height="81.972" viewBox="0 0 60.839 81.972">
  <path id="Path_79" data-name="Path 79" d="M54.435,31.541V24.015a24.015,24.015,0,0,0-48.031,0v7.526A8.018,8.018,0,0,0,0,39.385v9.089a1.6,1.6,0,0,0,3.2,0V39.385a4.808,4.808,0,0,1,4.8-4.8H52.834a4.808,4.808,0,0,1,4.8,4.8V73.967a4.811,4.811,0,0,1-3.2,4.528V68.844a1.6,1.6,0,1,0-3.2,0V78.77H8.005a4.808,4.808,0,0,1-4.8-4.8V61.319a1.6,1.6,0,0,0-3.2,0V73.967a8.014,8.014,0,0,0,8.005,8.005H52.834a8.014,8.014,0,0,0,8.005-8.005V39.385A8.018,8.018,0,0,0,54.435,31.541ZM18.252,31.38V24.015a12.168,12.168,0,0,1,24.335,0V31.38Zm27.538,0V24.015a15.37,15.37,0,0,0-30.74,0V31.38H9.606V24.015a20.813,20.813,0,0,1,41.626,0V31.38Zm0,0" fill="#e05e80"/>
  <path id="Path_80" data-name="Path 80" d="M1.6,335.69a1.6,1.6,0,1,0-1.6-1.6,1.6,1.6,0,0,0,1.6,1.6Zm0,0" transform="translate(0 -279.256)" fill="#e05e80"/>
  <path id="Path_81" data-name="Path 81" d="M144.754,305.066a4.808,4.808,0,0,0,4.8-4.8v-8.5a8.645,8.645,0,1,0-9.606-.027v8.529A4.808,4.808,0,0,0,144.754,305.066Zm-5.423-20.507a5.443,5.443,0,1,1,7.9,4.857,1.6,1.6,0,0,0-.877,1.428v9.419a1.6,1.6,0,0,1-3.2,0v-9.44a1.6,1.6,0,0,0-.867-1.423A5.427,5.427,0,0,1,139.331,284.559Zm0,0" transform="translate(-114.335 -231.74)" fill="#e05e80"/>
  <path id="Path_82" data-name="Path 82" d="M321.6,382.2a1.6,1.6,0,1,0-1.132-.469A1.61,1.61,0,0,0,321.6,382.2Zm0,0" transform="translate(-268.767 -318.322)" fill="#e05e80"/>
</svg>
