<svg xmlns="http://www.w3.org/2000/svg" width="62" height="83" viewBox="0 0 62 83"><g><g><g><path fill="#4e4884" d="M46.082 31.713v-7.365c0-8.474-6.895-15.37-15.37-15.37-8.474 0-15.37 6.896-15.37 15.37v7.365H9.9v-7.365c0-11.476 9.337-20.813 20.814-20.813 11.476 0 20.813 9.337 20.813 20.813v7.365zm-27.537 0v-7.365c0-6.709 5.458-12.167 12.168-12.167 6.709 0 12.167 5.458 12.167 12.167v7.365zm36.183.162v-7.527C54.728 11.106 43.955.333 30.713.333 17.47.333 6.697 11.106 6.697 24.348v7.527c-3.65.743-6.404 3.978-6.404 7.843v9.09a1.6 1.6 0 1 0 3.202 0v-9.09a4.808 4.808 0 0 1 4.803-4.803h44.829a4.808 4.808 0 0 1 4.803 4.803V74.3a4.81 4.81 0 0 1-3.202 4.528v-9.651a1.601 1.601 0 1 0-3.202 0v9.926H8.298A4.808 4.808 0 0 1 3.495 74.3V61.652a1.6 1.6 0 1 0-3.202 0V74.3c0 4.414 3.591 8.005 8.005 8.005h44.829c4.414 0 8.005-3.59 8.005-8.005V39.718c0-3.865-2.754-7.1-6.404-7.843z"/></g><g><path fill="#4e4884" d="M1.894 56.767c.421 0 .835-.17 1.132-.469.298-.298.47-.71.47-1.132 0-.42-.172-.834-.47-1.131a1.612 1.612 0 0 0-1.132-.47c-.42 0-.834.172-1.132.47a1.61 1.61 0 0 0-.469 1.131c0 .422.172.834.47 1.132.297.298.71.47 1.131.47z"/></g><g><path fill="#4e4884" d="M25.29 53.153a5.45 5.45 0 0 1 5.443-5.443 5.45 5.45 0 0 1 5.444 5.443 5.424 5.424 0 0 1-2.987 4.857 1.6 1.6 0 0 0-.876 1.428v9.419c0 .883-.718 1.6-1.601 1.6a1.602 1.602 0 0 1-1.601-1.6v-9.44a1.6 1.6 0 0 0-.868-1.424 5.427 5.427 0 0 1-2.954-4.84zm5.423 20.507a4.808 4.808 0 0 0 4.803-4.803v-8.502a8.602 8.602 0 0 0 3.863-7.202c0-4.767-3.88-8.645-8.646-8.645-4.767 0-8.645 3.878-8.645 8.645a8.61 8.61 0 0 0 3.822 7.175v8.529a4.808 4.808 0 0 0 4.803 4.803z"/></g><g><path fill="#4e4884" d="M53.127 64.214a1.61 1.61 0 0 0 1.132-.47 1.61 1.61 0 0 0 .469-1.131 1.61 1.61 0 0 0-.47-1.132 1.61 1.61 0 0 0-1.131-.47c-.421 0-.834.172-1.132.47-.298.297-.47.71-.47 1.132 0 .42.172.834.47 1.132.298.297.711.469 1.132.469z"/></g></g></g></svg>