<svg xmlns="http://www.w3.org/2000/svg" width="99.282" height="89.198" viewBox="0 0 99.282 89.198">
  <g id="service" transform="translate(0 0)">
    <path id="Path_155" data-name="Path 155" d="M247.939,100a1.939,1.939,0,1,0,1.939,1.939A1.94,1.94,0,0,0,247.939,100Zm0,0" transform="translate(-198.298 -80.609)" fill="#4e4884"/>
    <path id="Path_156" data-name="Path 156" d="M81.939,263.878A1.939,1.939,0,1,0,80,261.939,1.94,1.94,0,0,0,81.939,263.878Zm0,0" transform="translate(-64.487 -209.584)" fill="#4e4884"/>
    <path id="Path_157" data-name="Path 157" d="M65.154,0C47.7,0,33.368,12.036,32.26,27.2,15.635,28.03,0,40.018,0,56.233A27.1,27.1,0,0,0,7.562,74.777a11.793,11.793,0,0,1-3.116,11.11A1.939,1.939,0,0,0,5.817,89.2a21.39,21.39,0,0,0,14.82-5.99A44.188,44.188,0,0,0,34.128,85.32c17.455,0,31.781-12.033,32.893-27.191a43.6,43.6,0,0,0,11.624-2.069,21.39,21.39,0,0,0,14.82,5.99,1.939,1.939,0,0,0,1.371-3.31,11.793,11.793,0,0,1-3.116-11.11,27.1,27.1,0,0,0,7.562-18.544C99.282,12.238,82.443,0,65.154,0ZM34.128,81.442a39.2,39.2,0,0,1-13.285-2.288,1.939,1.939,0,0,0-2.148.492,17.5,17.5,0,0,1-8.7,5.164,15.682,15.682,0,0,0,1.182-11.541,1.935,1.935,0,0,0-.474-.82A23.3,23.3,0,0,1,3.878,56.233c0-13.665,13.852-25.208,30.25-25.208,15.484,0,29.086,10.767,29.086,25.208,0,13.9-13.048,25.208-29.086,25.208ZM88.581,45.3a1.944,1.944,0,0,0-.474.82,15.682,15.682,0,0,0,1.182,11.541,17.491,17.491,0,0,1-8.7-5.164,1.94,1.94,0,0,0-2.148-.492,38.2,38.2,0,0,1-11.424,2.24A27.756,27.756,0,0,0,56.537,34.9H81.83a1.939,1.939,0,1,0,0-3.878H50.579A36.165,36.165,0,0,0,36.148,27.2C37.262,14.18,49.846,3.878,65.154,3.878c16.4,0,30.25,11.544,30.25,25.208A23.3,23.3,0,0,1,88.581,45.3Zm0,0" fill="#4e4884"/>
    <path id="Path_158" data-name="Path 158" d="M146.372,260H121.939a1.939,1.939,0,1,0,0,3.878h24.433a1.939,1.939,0,1,0,0-3.878Zm0,0" transform="translate(-96.731 -209.584)" fill="#4e4884"/>
    <path id="Path_159" data-name="Path 159" d="M114.128,320H81.939a1.939,1.939,0,1,0,0,3.878h32.189a1.939,1.939,0,0,0,0-3.878Zm0,0" transform="translate(-64.487 -257.949)" fill="#4e4884"/>
    <path id="Path_160" data-name="Path 160" d="M312.372,100H287.939a1.939,1.939,0,0,0,0,3.878h24.433a1.939,1.939,0,0,0,0-3.878Zm0,0" transform="translate(-230.542 -80.609)" fill="#4e4884"/>
  </g>
</svg>
