<svg xmlns="http://www.w3.org/2000/svg" width="23" height="18" viewBox="0 0 23 18"><g><g><g><g><path fill="#4e4884" d="M21.72 15.257a1.53 1.53 0 0 1-1.528 1.527H2.812a1.53 1.53 0 0 1-1.527-1.527V3.383a1.53 1.53 0 0 1 1.528-1.527h17.374a1.53 1.53 0 0 1 1.528 1.527v11.874zM20.192.566H2.812A2.815 2.815 0 0 0 0 3.378v11.879a2.815 2.815 0 0 0 2.813 2.812h17.374A2.815 2.815 0 0 0 23 15.257V3.383A2.812 2.812 0 0 0 20.192.566z"/></g><g><path fill="#4e4884" d="M14.505 9.17l5.625-5.044a.646.646 0 0 0 .048-.91.646.646 0 0 0-.909-.047l-7.757 6.962L9.999 8.78c-.005-.005-.01-.01-.01-.014a.95.95 0 0 0-.105-.09L3.726 3.163a.642.642 0 0 0-.909.053.642.642 0 0 0 .053.909L8.56 9.213l-5.668 5.306a.645.645 0 0 0 .88.942l5.754-5.382 1.561 1.394a.642.642 0 0 0 .857-.004l1.604-1.438 5.72 5.435a.642.642 0 0 0 .885-.933z"/></g></g></g></g></svg>