<svg id="placeholder" xmlns="http://www.w3.org/2000/svg" width="11.786" height="16.761" viewBox="0 0 11.786 16.761">
  <g id="Group_21" data-name="Group 21" transform="translate(0)">
    <g id="Group_20" data-name="Group 20">
      <path id="Path_24" data-name="Path 24" d="M81.893,0A5.894,5.894,0,0,0,76.88,8.991l4.678,7.538a.491.491,0,0,0,.417.232h0a.491.491,0,0,0,.417-.239l4.558-7.611A5.894,5.894,0,0,0,81.893,0Zm4.219,8.408-4.144,6.92L77.714,8.474a4.914,4.914,0,1,1,8.4-.066Z" transform="translate(-76)" fill="#fff"/>
    </g>
  </g>
  <g id="Group_23" data-name="Group 23" transform="translate(2.932 2.939)">
    <g id="Group_22" data-name="Group 22">
      <path id="Path_25" data-name="Path 25" d="M168.961,90a2.96,2.96,0,1,0,2.96,2.961A2.964,2.964,0,0,0,168.961,90Zm0,4.941a1.98,1.98,0,1,1,1.977-1.98A1.982,1.982,0,0,1,168.961,94.941Z" transform="translate(-166 -90)" fill="#fff"/>
    </g>
  </g>
</svg>
