<svg xmlns="http://www.w3.org/2000/svg" width="20" height="29" viewBox="0 0 20 29"><g><g><g><g><g><path fill="#4e4884" d="M17.167 14.32L10.13 26.068 2.91 14.433a8.327 8.327 0 0 1-1.255-4.383c0-4.597 3.751-8.348 8.349-8.348 4.597 0 8.342 3.751 8.342 8.348a8.33 8.33 0 0 1-1.18 4.27zM10.004.046C4.488.046 0 4.534 0 10.05c0 1.864.516 3.683 1.493 5.261L9.435 28.11c.152.245.42.394.708.394h.007a.834.834 0 0 0 .709-.405l7.739-12.922a9.993 9.993 0 0 0 1.411-5.126c0-5.516-4.488-10.004-10.005-10.004z"/></g></g></g><g><g><g><path fill="#4e4884" d="M10.005 13.396a3.348 3.348 0 0 1-3.346-3.346 3.358 3.358 0 0 1 3.346-3.346 3.353 3.353 0 0 1 3.34 3.346 3.342 3.342 0 0 1-3.34 3.346zm0-8.348a5.008 5.008 0 0 0-5.003 5.002 4.996 4.996 0 0 0 5.003 5.003c2.829 0 5.002-2.292 5.002-5.003a5.008 5.008 0 0 0-5.002-5.002z"/></g></g></g></g></g></svg>