<svg xmlns="http://www.w3.org/2000/svg" width="21" height="23" viewBox="0 0 21 23"><g><g><g><path fill="#4e4884" d="M20.149 11.922c0 3.99-3.246 7.235-7.237 7.235H8.69a.425.425 0 0 0-.285.11L6.526 20.97v-1.822a.425.425 0 0 0-.284-.401 7.25 7.25 0 0 1-4.824-6.824V8.086c0-3.989 3.246-7.235 7.236-7.235h4.258c3.99 0 7.237 3.246 7.237 7.235zM12.912 0H8.654C4.194 0 .566 3.627.566 8.086v3.836c0 3.32 2.04 6.305 5.109 7.52v2.487a.425.425 0 0 0 .711.315l2.469-2.236h4.057c4.46 0 8.088-3.627 8.088-8.086V8.086C21 3.627 17.372 0 12.912 0z"/></g><g><path fill="#4e4884" d="M14.893 14.534c-.383.591-1.176.76-1.802.356-.03-.017-3.135-1.633-4.77-3.3a19.004 19.004 0 0 1-2.683-3.53c-.338-.945-.278-1.526.197-1.939l.964-.838 1.768 2.034a.421.421 0 0 1-.041.6l-.522.454a.425.425 0 0 0-.128.447c.89 2.894 2.622 3.462 3.887 3.877l.184.06a.424.424 0 0 0 .492-.17l.302-.466a.42.42 0 0 1 .588-.123l2.26 1.467zm1.516-1.553l-2.616-1.7a1.275 1.275 0 0 0-1.767.375l-.123.19c-1.132-.375-2.38-.853-3.128-3.017l.31-.269a1.28 1.28 0 0 0 .124-1.802L7.162 4.404a.426.426 0 0 0-.6-.043L5.277 5.478c-1.128.98-.601 2.43-.428 2.906a.423.423 0 0 0 .028.062c.045.08 1.112 1.985 2.836 3.74 1.73 1.763 4.855 3.391 4.95 3.438a2.13 2.13 0 0 0 2.944-.626l.928-1.427a.427.427 0 0 0-.126-.59z"/></g><g><path fill="#4e4884" d="M11.755 6.916a.425.425 0 1 0-.233.82c.634.18 1.14.686 1.318 1.32a.426.426 0 0 0 .82-.23 2.783 2.783 0 0 0-1.905-1.91z"/></g><g><path fill="#4e4884" d="M14.995 9.459a.426.426 0 0 0 .41-.541 5.406 5.406 0 0 0-3.7-3.708.425.425 0 1 0-.232.82 4.549 4.549 0 0 1 3.112 3.119c.053.187.224.31.41.31z"/></g><g><path fill="#4e4884" d="M11.522 3.228a.426.426 0 1 0-.233.82 7.707 7.707 0 0 1 5.274 5.284.426.426 0 0 0 .819-.23 8.564 8.564 0 0 0-5.86-5.874z"/></g></g></g></svg>