<svg xmlns="http://www.w3.org/2000/svg" width="22" height="22" viewBox="0 0 22 22"><g><g><g><path fill="#4e4884" d="M16.113 12.756c-.065-.105-.235-.17-.491-.296-.257-.127-1.516-.742-1.75-.827-.235-.084-.407-.127-.577.127-.17.255-.662.827-.811.996-.15.17-.299.192-.555.065-.256-.127-1.081-.396-2.06-1.262-.761-.673-1.275-1.505-1.425-1.76-.149-.254-.015-.391.113-.518.115-.114.256-.296.384-.445.128-.148.171-.254.256-.424.086-.17.043-.318-.021-.445s-.577-1.378-.79-1.887c-.214-.508-.427-.424-.576-.424-.15 0-.32-.02-.491-.02a.945.945 0 0 0-.684.317c-.234.255-.896.87-.896 2.12s.918 2.459 1.046 2.628c.128.17 1.771 2.82 4.375 3.837 2.604 1.017 2.604.678 3.074.635.47-.042 1.515-.615 1.73-1.208.212-.594.212-1.103.149-1.209zM10.836 1.651c4.844 0 8.785 3.911 8.785 8.718s-3.94 8.717-8.785 8.717a8.78 8.78 0 0 1-4.833-1.442l-3.376 1.073 1.097-3.238a8.626 8.626 0 0 1-1.673-5.11c0-4.807 3.94-8.718 8.785-8.718zm10.45 8.717C21.285 4.642 16.607 0 10.835 0 5.065 0 .386 4.642.386 10.368c0 1.96.549 3.792 1.5 5.354L0 21.285l5.785-1.838a10.467 10.467 0 0 0 5.051 1.29c5.771 0 10.45-4.642 10.45-10.368z"/></g></g></g></svg>