<svg xmlns="http://www.w3.org/2000/svg" width="111" height="71" viewBox="0 0 111 71"><g><g><g><g><g><path fill="#4e4884" d="M105.574 44.501a1.972 1.972 0 0 1-1.97-1.97v-1.97h3.94v3.94zm-12.979 22.25c-4.154 0-7.533-3.378-7.533-7.532s3.38-7.533 7.533-7.533c4.153 0 7.533 3.38 7.533 7.533 0 4.154-3.38 7.533-7.533 7.533zm-61.19 0c-4.153 0-7.532-3.378-7.532-7.532s3.38-7.533 7.533-7.533c4.153 0 7.533 3.38 7.533 7.533 0 4.154-3.38 7.533-7.533 7.533zm49.949-37.083V18.31H96.8l2.84 11.358zm0-18.774h13.095a3.829 3.829 0 0 1 3.825 3.824v.116h-16.92zm21.895 18.878l-2.875-11.5a1.739 1.739 0 0 0 1.376-1.7v-1.854c0-4.026-3.275-7.3-7.3-7.3H81.353V3.592A3.597 3.597 0 0 0 77.76 0H11.01a3.597 3.597 0 0 0-3.592 3.593v31.521a1.738 1.738 0 0 0 3.477 0V3.593c0-.064.051-.116.115-.116h66.752c.064 0 .116.052.116.116v31.522a1.738 1.738 0 0 0 3.477 0v-1.97h20.515a5.688 5.688 0 0 1 5.402 3.94h-5.405c-.96 0-1.739.778-1.739 1.738v3.708a5.453 5.453 0 0 0 5.447 5.447h1.97v7.649H103c-1.493-4.312-5.592-7.417-10.404-7.417-4.813 0-8.912 3.105-10.405 7.417h-.837V42.53a1.738 1.738 0 0 0-3.477 0v13.095H41.81c-1.493-4.311-5.591-7.417-10.404-7.417S22.494 51.315 21 55.626H11.01a.116.116 0 0 1-.115-.116v-3.824h7.532a1.738 1.738 0 0 0 0-3.477H1.738a1.738 1.738 0 0 0 0 3.477h5.679v3.824a3.597 3.597 0 0 0 3.593 3.593h9.39c0 .039-.004.077-.004.116 0 6.07 4.94 11.01 11.01 11.01 6.07 0 11.01-4.94 11.01-11.01 0-.04-.003-.077-.004-.116h39.176c0 .039-.003.077-.003.116 0 6.07 4.94 11.01 11.01 11.01 6.07 0 11.009-4.94 11.009-11.01 0-.04-.003-.077-.003-.116h5.682c.96 0 1.738-.778 1.738-1.738V38.823c0-4.578-3.377-8.382-7.772-9.05z"/></g></g></g><g><g><g><path fill="#4e4884" d="M31.406 55.627a3.597 3.597 0 0 0-3.593 3.592 3.597 3.597 0 0 0 3.593 3.593 3.597 3.597 0 0 0 3.592-3.593 3.597 3.597 0 0 0-3.592-3.592z"/></g></g></g><g><g><g><path fill="#4e4884" d="M92.595 55.627a3.597 3.597 0 0 0-3.593 3.592 3.597 3.597 0 0 0 3.593 3.593 3.597 3.597 0 0 0 3.593-3.593 3.597 3.597 0 0 0-3.593-3.592z"/></g></g></g><g><g><g><path fill="#4e4884" d="M72.199 48.21h-25.96a1.738 1.738 0 0 0 0 3.477H72.2a1.738 1.738 0 0 0 0-3.477z"/></g></g></g><g><g><g><path fill="#4e4884" d="M27.697 40.793H5.447a1.738 1.738 0 0 0 0 3.477h22.25a1.738 1.738 0 0 0 0-3.477z"/></g></g></g><g><g><g><path fill="#4e4884" d="M60.448 17.197a1.738 1.738 0 0 0-2.458 0L42.531 32.656l-8.042-8.042a1.738 1.738 0 1 0-2.458 2.458l9.271 9.271c.34.34.784.51 1.23.51.444 0 .889-.17 1.228-.51l16.688-16.687c.679-.68.679-1.78 0-2.459z"/></g></g></g></g></g></svg>