<svg xmlns="http://www.w3.org/2000/svg" width="93" height="92" viewBox="0 0 93 92"><g><g><g><path fill="#4e4884" d="M74.593 35.568H62.737V11.856h11.856zm14.82 13.339c0 3.616-1.86 6.8-4.674 8.659a10.408 10.408 0 0 0 1.71-5.695c0-5.721-4.653-10.375-10.374-10.375h-14.82c-5.72 0-10.374 4.654-10.374 10.375 0 2.039.612 4.02 1.71 5.695-2.812-1.859-4.674-5.043-4.674-8.66 0-5.72 4.654-10.374 10.374-10.374H79.04c5.721 0 10.375 4.654 10.375 10.375zM77.558 65.209H59.773V53.353h2.964v5.928h11.856v-5.928h2.964zM65.701 53.353h5.928v2.964h-5.928zm14.82 4.446v-7.41H56.81v7.41a7.445 7.445 0 0 1-2.964-5.928c0-4.086 3.324-7.41 7.41-7.41h14.82c4.086 0 7.41 3.324 7.41 7.41a7.447 7.447 0 0 1-2.963 5.928zm-54.834-37.05h-8.892v-8.893h8.892zm13.338 13.337c0 4.178-2.482 7.787-6.05 9.429a9.672 9.672 0 0 0 3.086-7.114c0-5.362-4.363-9.725-9.725-9.725H16.147c-5.363 0-9.726 4.363-9.726 9.725a9.674 9.674 0 0 0 3.085 7.114c-3.567-1.642-6.05-5.25-6.05-9.429 0-5.72 4.654-10.374 10.375-10.374h14.82c5.72 0 10.374 4.654 10.374 10.374zM3.606 2.964h85.66c-.69 3.378-3.683 5.928-7.262 5.928H10.867c-3.58 0-6.573-2.55-7.26-5.928zm78.398 8.892c5.72 0 10.374-4.653 10.374-10.374V0H.493v1.482c0 5.72 4.653 10.374 10.374 10.374h2.964v8.892C6.477 20.748.493 26.733.493 34.086c0 7.354 5.984 13.338 13.338 13.338h1.482v-3.88l-2.19-1.095a6.723 6.723 0 0 1-3.738-6.048 6.77 6.77 0 0 1 6.76-6.76h10.19c3.728 0 6.762 3.033 6.762 6.76a6.725 6.725 0 0 1-3.738 6.048l-2.19 1.096v3.88h1.482c7.354 0 13.338-5.985 13.338-13.339 0-7.353-5.984-13.338-13.338-13.338v-8.892h31.122v23.712h-1.482c-7.353 0-13.338 5.985-13.338 13.339 0 6.852 5.198 12.51 11.856 13.25v6.016h23.713v-6.016c6.658-.74 11.856-6.398 11.856-13.25 0-7.354-5.985-13.339-13.338-13.339h-1.483V11.856z"/></g><g><path fill="#4e4884" d="M83.486 88.92a5.934 5.934 0 0 1-5.929-5.927 5.934 5.934 0 0 1 5.929-5.928 5.934 5.934 0 0 1 5.928 5.928 5.934 5.934 0 0 1-5.928 5.928zM3.456 77.066h11.175a8.847 8.847 0 0 0-2.282 5.928c0 2.28.868 4.353 2.282 5.928H3.457zm0-17.784H15.54l2.47 14.82H3.457zm23.713 2.964h2.964v5.928h11.856v-5.928h2.964V74.1H27.17zm5.928 0h5.928v2.964h-5.928zm36.25 14.82h7.53a8.84 8.84 0 0 0-2.284 5.928c0 2.28.869 4.353 2.283 5.928h-7.529a8.847 8.847 0 0 0 2.282-5.928c0-2.28-.868-4.353-2.282-5.928zM56.81 82.993a5.934 5.934 0 0 1 5.928-5.928 5.934 5.934 0 0 1 5.928 5.928 5.934 5.934 0 0 1-5.928 5.928 5.934 5.934 0 0 1-5.928-5.928zm-8.21-5.928h7.53a8.84 8.84 0 0 0-2.284 5.928c0 2.28.869 4.353 2.283 5.928h-7.53a8.847 8.847 0 0 0 2.283-5.928c0-2.28-.868-4.353-2.282-5.928zM36.06 82.993a5.934 5.934 0 0 1 5.928-5.928 5.934 5.934 0 0 1 5.928 5.928 5.934 5.934 0 0 1-5.928 5.928 5.934 5.934 0 0 1-5.928-5.928zm-.68-5.928a8.84 8.84 0 0 0-2.284 5.928c0 2.28.868 4.353 2.282 5.928h-7.528a8.847 8.847 0 0 0 2.282-5.928c0-2.28-.869-4.353-2.282-5.928zm-20.068 5.928a5.934 5.934 0 0 1 5.928-5.928 5.934 5.934 0 0 1 5.928 5.928 5.934 5.934 0 0 1-5.928 5.928 5.934 5.934 0 0 1-5.928-5.928zM83.486 74.1H47.917V59.28H24.205V74.1h-3.19L18.05 56.317H.493v35.568h82.993c4.904 0 8.892-3.988 8.892-8.892S88.39 74.1 83.486 74.1z"/></g><g><path fill="#4e4884" d="M65.701 20.748h2.964v2.964h-2.964z"/></g><g><path fill="#4e4884" d="M65.701 26.676h2.964v2.964h-2.964z"/></g><g><path fill="#4e4884" d="M65.701 14.82h2.964v2.964h-2.964z"/></g><g><path fill="#4e4884" d="M82.004 81.51h2.964v2.965h-2.964z"/></g><g><path fill="#4e4884" d="M61.255 81.51h2.964v2.965h-2.964z"/></g><g><path fill="#4e4884" d="M40.507 81.51h2.964v2.965h-2.964z"/></g><g><path fill="#4e4884" d="M19.759 81.51h2.964v2.965h-2.964z"/></g></g></g></svg>