<svg xmlns="http://www.w3.org/2000/svg" width="97" height="86" viewBox="0 0 97 86"><g><g><g><path fill="#e05e80" d="M86.446 23.951l.003-5.26h3.763c1.45 0 2.63 1.18 2.63 2.63s-1.18 2.63-2.63 2.63zm-19.061-9.38a3.158 3.158 0 0 1 2.24-.926 3.16 3.16 0 0 1 2.24.926c.196.196.357.413.49.64a6.414 6.414 0 0 0-4.274 4.364 3.147 3.147 0 0 1-.696-.523 3.172 3.172 0 0 1 0-4.48zm19.066.361l.003-6.724c.003-4.515-3.668-8.19-8.183-8.192L49.723 0h-.004a6.045 6.045 0 0 0-4.302 1.782l-42.62 42.62A8.133 8.133 0 0 0 .4 50.19c0 2.187.851 4.243 2.398 5.79l27.658 27.657a8.162 8.162 0 0 0 5.79 2.395 8.163 8.163 0 0 0 5.79-2.395l26.833-26.833a1.878 1.878 0 1 0-2.658-2.657L39.378 80.981a4.435 4.435 0 0 1-6.265 0L5.455 53.323a4.401 4.401 0 0 1-1.297-3.132c0-1.184.46-2.296 1.297-3.133L48.074 4.44a2.312 2.312 0 0 1 1.645-.682h.002l28.548.016c2.442 0 4.429 1.99 4.428 4.432l-.01 15.745h-8.462a2.623 2.623 0 0 1-1.866-.778 6.891 6.891 0 0 0 2.163-1.464 6.934 6.934 0 0 0 0-9.795 6.934 6.934 0 0 0-9.795 0 6.934 6.934 0 0 0 0 9.795 6.889 6.889 0 0 0 3.53 1.89 6.399 6.399 0 0 0 5.967 4.11h8.462l-.006 9.007c0 .622-.242 1.205-.681 1.644L76.84 43.52a1.88 1.88 0 0 0 2.657 2.658l5.16-5.16a6.047 6.047 0 0 0 1.781-4.299l.005-9.01h3.77a6.395 6.395 0 0 0 6.388-6.387 6.396 6.396 0 0 0-6.389-6.389z"/></g><g><path fill="#e05e80" d="M30.728 47.406a1.879 1.879 0 0 0 2.314 1.307l19.288-5.37a1.88 1.88 0 0 0-1.008-3.62l-19.288 5.369a1.88 1.88 0 0 0-1.306 2.314z"/></g><g><path fill="#e05e80" d="M44.396 55.063a1.784 1.784 0 0 1-3.042-1.26 1.78 1.78 0 0 1 1.782-1.781c.456 0 .913.173 1.26.52a1.784 1.784 0 0 1 0 2.52zm-5.177-5.178a5.503 5.503 0 0 0-1.623 3.918c0 1.48.576 2.87 1.623 3.917a5.524 5.524 0 0 0 3.917 1.62c1.419 0 2.837-.54 3.918-1.62a5.547 5.547 0 0 0 0-7.835 5.547 5.547 0 0 0-7.835 0z"/></g><g><path fill="#e05e80" d="M42.806 33.52a1.77 1.77 0 0 1 1.26-.521c.477 0 .924.185 1.26.521a1.784 1.784 0 0 1 0 2.52 1.784 1.784 0 0 1-2.52 0 1.785 1.785 0 0 1 0-2.52zm5.178 5.178a5.547 5.547 0 0 0 0-7.835 5.505 5.505 0 0 0-3.918-1.622c-1.48 0-2.87.576-3.917 1.622a5.547 5.547 0 0 0 0 7.835 5.524 5.524 0 0 0 3.917 1.62c1.42 0 2.838-.54 3.918-1.62z"/></g><g><path fill="#e05e80" d="M19.088 43.524a1.88 1.88 0 0 0-2.658 0l-5.339 5.338a1.879 1.879 0 0 0 0 2.657l23.827 23.827a1.875 1.875 0 0 0 2.657 0l35.623-35.624a1.88 1.88 0 0 0 0-2.658L49.372 13.238a1.879 1.879 0 0 0-2.657 0L27.06 32.894a1.88 1.88 0 0 0 2.657 2.658l18.328-18.328 21.168 21.17-32.966 32.965-21.168-21.168 4.01-4.01a1.879 1.879 0 0 0 0-2.658z"/></g><g><path fill="#e05e80" d="M72.855 48.283c-.495 0-.98.201-1.329.55-.349.35-.55.835-.55 1.33 0 .493.201.978.55 1.328.35.349.834.55 1.329.55.494 0 .978-.201 1.328-.55.35-.35.55-.835.55-1.329s-.2-.979-.55-1.328c-.35-.35-.834-.55-1.328-.55z"/></g><g><path fill="#e05e80" d="M24.4 40.865c.352-.35.552-.832.552-1.328 0-.494-.2-.977-.551-1.329a1.89 1.89 0 0 0-1.328-.55c-.495 0-.98.2-1.328.55-.35.35-.55.835-.55 1.329 0 .496.2.979.55 1.328a1.88 1.88 0 0 0 2.656 0z"/></g></g></g></svg>