<svg xmlns="http://www.w3.org/2000/svg" width="69" height="81" viewBox="0 0 69 81"><g><g><g><g><g><path fill="#4e4884" d="M65.513 32.803c0 16.624-7.659 27.618-14.084 33.914-7.293 7.145-15.09 10.318-16.823 10.318-1.733 0-9.53-3.173-16.824-10.318-6.425-6.296-14.084-17.29-14.084-33.914v-16C14.58 13.712 24.713 9.4 34.606 3.651c9.647 5.596 20.286 10.123 30.907 13.15zm2.139-18.916C56.587 10.855 45.458 6.134 35.466.235a1.69 1.69 0 0 0-1.72 0C23.466 6.304 12.938 10.769 1.56 13.887a1.691 1.691 0 0 0-1.244 1.631v17.285c0 17.8 8.211 29.581 15.1 36.33C22.83 76.4 31.47 80.42 34.606 80.42c3.136 0 11.775-4.019 19.191-11.286 6.889-6.749 15.1-18.53 15.1-36.33V15.518c0-.762-.51-1.43-1.245-1.631z"/></g><g><path fill="#4e4884" d="M19.612 16.613a1.691 1.691 0 0 0-2.194-.954 137.634 137.634 0 0 1-9.22 3.258 1.692 1.692 0 0 0-1.185 1.614v6.532a1.692 1.692 0 0 0 3.383 0v-5.296c2.777-.898 5.551-1.892 8.262-2.96a1.691 1.691 0 0 0 .954-2.194z"/></g><g><path fill="#4e4884" d="M22.825 16.934c.227 0 .458-.046.678-.142l.032-.014a1.688 1.688 0 0 0 .866-2.227 1.696 1.696 0 0 0-2.232-.868l-.028.012a1.688 1.688 0 0 0-.869 2.225c.278.636.9 1.014 1.553 1.014z"/></g><g><path fill="#4e4884" d="M54.76 54.547a1.692 1.692 0 0 0-2.34.49 41.172 41.172 0 0 1-4.862 6.073 43.206 43.206 0 0 1-4.852 4.317 1.692 1.692 0 0 0 2.051 2.69 46.626 46.626 0 0 0 5.233-4.656 44.515 44.515 0 0 0 5.262-6.573 1.691 1.691 0 0 0-.491-2.341z"/></g><g><path fill="#4e4884" d="M38.777 68.08l-.097.057a1.692 1.692 0 0 0 1.695 2.928l.112-.066a1.692 1.692 0 1 0-1.71-2.92z"/></g><g><path fill="#4e4884" d="M48.53 28.285c.399-.4.93-.62 1.497-.62.566 0 1.097.22 1.497.62a2.12 2.12 0 0 1 0 2.995L30.672 52.132c-.4.4-.932.62-1.498.62-.565 0-1.097-.22-1.497-.62l-9.989-9.988a2.12 2.12 0 0 1 0-2.994c.4-.4.932-.62 1.498-.62s1.097.22 1.497.62l7.295 7.294a1.692 1.692 0 0 0 2.392 0zm-25.455 8.472a5.464 5.464 0 0 0-3.89-1.61c-1.468 0-2.85.571-3.889 1.61a5.508 5.508 0 0 0 0 7.78l9.989 9.988a5.465 5.465 0 0 0 3.89 1.61c1.469 0 2.85-.571 3.89-1.61l20.852-20.853a5.507 5.507 0 0 0 0-7.779 5.464 5.464 0 0 0-3.89-1.61c-1.47 0-2.851.571-3.89 1.61L29.174 42.855z"/></g></g></g></g></g></svg>