<svg xmlns="http://www.w3.org/2000/svg" width="76" height="65" viewBox="0 0 76 65"><g><g><g><g><path fill="#e05e80" d="M.28 8.652l1.405 2.67 12.12-6.38v59.102h3.017v-61.6L14.611 1.11z"/></g><g><path fill="#e05e80" d="M54.284 62.033c-11.65 0-18.605-10.762-18.605-28.79 0-14.49 3.524-20.665 3.558-20.72l.117-.242c.035-.094 3.657-9.334 14.93-9.334 11.205 0 14.789 8.956 14.934 9.334l.113.235c.034.062 3.56 6.238 3.56 20.728 0 18.027-6.955 28.789-18.607 28.789zm0-62.103c-12.534 0-17.153 9.872-17.696 11.15-.526.938-3.926 7.595-3.926 22.163 0 19.917 8.083 31.807 21.622 31.807 13.541 0 21.624-11.89 21.624-31.807 0-14.57-3.4-21.225-3.925-22.163C71.44 9.802 66.819-.07 54.285-.07z"/></g></g></g></g></svg>