<svg xmlns="http://www.w3.org/2000/svg" width="127" height="58.48" viewBox="0 0 127 58.48">
  <g id="parking" transform="translate(0 -236.269)">
    <g id="Group_131" data-name="Group 131" transform="translate(15.376 242.54)">
      <g id="Group_130" data-name="Group 130">
        <path id="Path_172" data-name="Path 172" d="M135.641,274.789c-.783-.431-1.555-.9-2.3-1.4L121.378,265.3a21.806,21.806,0,0,0-12.251-3.75H87.162a21.749,21.749,0,0,0-15.447,6.381,29.321,29.321,0,0,1-7.19,5.26,4.707,4.707,0,0,0,2.17,8.884h7.489a1.809,1.809,0,0,0,0-3.618H66.695a1.088,1.088,0,0,1-.5-2.054,32.933,32.933,0,0,0,8.076-5.908,18.152,18.152,0,0,1,12.893-5.327h4.918v13.289H86.069a1.809,1.809,0,0,0,0,3.618h49.609a2.7,2.7,0,0,0,2.7-2.7A5.248,5.248,0,0,0,135.641,274.789ZM95.7,278.459V265.171h13.429a18.2,18.2,0,0,1,10.226,3.13l11.967,8.084c.831.561,1.7,1.091,2.577,1.575a1.685,1.685,0,0,1,.562.5Z" transform="translate(-61.987 -261.552)" fill="#e05e80"/>
      </g>
    </g>
    <g id="Group_133" data-name="Group 133" transform="translate(46.172 265.816)">
      <g id="Group_132" data-name="Group 132" transform="translate(0 0)">
        <path id="Path_173" data-name="Path 173" d="M193.54,355.388h-5.588a1.809,1.809,0,1,0,0,3.618h5.588a1.809,1.809,0,1,0,0-3.618Z" transform="translate(-186.142 -355.388)" fill="#e05e80"/>
      </g>
    </g>
    <g id="Group_135" data-name="Group 135" transform="translate(0 236.269)">
      <g id="Group_134" data-name="Group 134">
        <path id="Path_174" data-name="Path 174" d="M125.439,264.3l-.571-.949a14.892,14.892,0,0,0-9.829-6.9l-4.671-.929c-23.541-5.152.356,3.029-5.822-1.158l-6.02-1.2a25.509,25.509,0,0,1-8.687-4.106L77.873,240.97a27.337,27.337,0,0,0-15.358-4.7H40.551a27.26,27.26,0,0,0-19.363,8,23.759,23.759,0,0,1-11.926,6.438l-2.6.544A8.419,8.419,0,0,0,0,259.455v17.522a5.3,5.3,0,0,0,3.144,4.838l7.206,3.2A12,12,0,0,0,33.679,286H93.765a11.995,11.995,0,0,0,23.095,0h3.432A6.716,6.716,0,0,0,127,279.294V269.91A10.882,10.882,0,0,0,125.439,264.3Zm-18.69-9.5-2.2-.438ZM28.06,288.675a8.384,8.384,0,0,1-13.555-9.41l.034-.075c.043-.092.088-.183.135-.273.022-.043.044-.085.066-.127.042-.078.086-.156.13-.234q.046-.08.094-.159c.041-.068.083-.136.127-.2s.08-.121.121-.181.081-.119.123-.177.1-.132.149-.2.078-.1.119-.153c.06-.074.122-.146.184-.218.035-.041.069-.083.106-.123q.138-.154.285-.3l.025-.026.057-.054c.083-.081.166-.162.251-.239l.068-.059c.085-.075.17-.15.257-.221l.025-.02a8.4,8.4,0,0,1,10.552.01l.011.008c.094.076.185.156.276.237l.049.043q.158.143.31.294c.109.109.214.222.317.335.045.05.087.1.131.152s.106.124.158.188.113.144.167.216c.031.04.061.081.091.122q.1.137.193.277l.031.048A8.4,8.4,0,0,1,28.06,288.675Zm83.18,0A8.384,8.384,0,0,1,98.3,278.156l.031-.047q.093-.141.193-.278c.03-.041.06-.081.09-.121.055-.073.11-.146.168-.217s.1-.124.156-.186.087-.1.132-.154c.1-.114.207-.226.317-.335a8.384,8.384,0,0,1,11.857,0c.109.109.214.221.316.335.045.05.088.1.131.153s.106.124.157.187.113.144.168.217l.091.122c.066.092.131.184.193.277l.032.048A8.4,8.4,0,0,1,111.24,288.675Zm12.142-9.381h0a3.094,3.094,0,0,1-3.09,3.09h-2.979a11.852,11.852,0,0,0-2.664-7.18l-.033-.042c-.1-.126-.21-.249-.319-.372-.028-.031-.054-.064-.082-.095-.115-.127-.234-.251-.355-.374-.021-.021-.039-.043-.06-.063a11.929,11.929,0,0,0-5.555-3.157,12.182,12.182,0,0,0-5.293-.128,11.919,11.919,0,0,0-6.127,3.285c-.02.02-.039.042-.059.062-.122.123-.241.248-.356.375-.027.03-.053.061-.079.092-.11.124-.218.248-.322.375l-.031.039a11.854,11.854,0,0,0-2.666,7.183H34.132a11.854,11.854,0,0,0-2.673-7.191l-.023-.029c-.109-.133-.222-.264-.338-.394l-.063-.072q-.2-.224-.418-.44a12.016,12.016,0,0,0-16.974,0c-.134.134-.263.271-.389.41-.037.041-.073.083-.11.125q-.134.151-.263.306l-.113.139q-.133.166-.259.335c-.026.035-.053.07-.079.105q-.34.465-.632.958l-.016.028q-.143.242-.273.491l-.008.014a11.927,11.927,0,0,0-1.249,3.845l-5.639-2.506a1.678,1.678,0,0,1-1-1.532V259.455a4.786,4.786,0,0,1,3.788-4.664l2.6-.544a27.37,27.37,0,0,0,13.738-7.416,23.664,23.664,0,0,1,16.809-6.944H62.516a23.732,23.732,0,0,1,13.332,4.081l11.967,8.084a28.853,28.853,0,0,0,10.006,4.657l16.512,3.284a11.265,11.265,0,0,1,7.435,5.223l.571.949a7.256,7.256,0,0,1,1.041,3.745Z" transform="translate(0 -236.269)" fill="#e05e80"/>
      </g>
    </g>
    <g id="Group_137" data-name="Group 137" transform="translate(16.639 277.254)">
      <g id="Group_136" data-name="Group 136" transform="translate(0 0)">
        <path id="Path_175" data-name="Path 175" d="M76.457,403.109a5.493,5.493,0,1,0,0,7.768A5.457,5.457,0,0,0,76.457,403.109ZM73.9,408.318a1.875,1.875,0,1,1,0-2.651A1.862,1.862,0,0,1,73.9,408.318Z" transform="translate(-67.08 -401.5)" fill="#e05e80"/>
      </g>
    </g>
    <g id="Group_139" data-name="Group 139" transform="translate(99.821 277.254)">
      <g id="Group_138" data-name="Group 138" transform="translate(0 0)">
        <path id="Path_176" data-name="Path 176" d="M411.8,403.109a5.493,5.493,0,1,0,1.609,3.884A5.456,5.456,0,0,0,411.8,403.109Zm-2.559,5.209a1.874,1.874,0,1,1,.549-1.325A1.862,1.862,0,0,1,409.246,408.318Z" transform="translate(-402.43 -401.5)" fill="#e05e80"/>
      </g>
    </g>
  </g>
</svg>
