<svg xmlns="http://www.w3.org/2000/svg" width="92.691" height="88.976" viewBox="0 0 92.691 88.976">
  <g id="fast" transform="translate(0 -10.262)">
    <g id="XMLID_386_" transform="translate(0 10.262)">
      <path id="XMLID_389_" d="M92.512,59.031A36.54,36.54,0,0,0,64.1,26.99v-4.6a6.155,6.155,0,0,0-1.486-12.128H49.578A6.155,6.155,0,0,0,48.092,22.39V27A36.351,36.351,0,0,0,30.264,36.81,36.745,36.745,0,0,0,27.19,40.3c-.045,0-.091-.007-.137-.007h-12.9a1.81,1.81,0,1,0,0,3.621H24.726a36.292,36.292,0,0,0-3.212,6.958H1.81a1.81,1.81,0,0,0,0,3.621h18.68a36.81,36.81,0,0,0-.9,6.959H11.587a1.81,1.81,0,1,0,0,3.621H19.65a36.756,36.756,0,0,0,1.13,6.959H9.052a1.81,1.81,0,0,0,0,3.621H21.936A36.565,36.565,0,0,0,52.508,99.061q1.794.177,3.588.177a36.658,36.658,0,0,0,19.958-5.9,1.81,1.81,0,0,0-1.976-3.034,32.949,32.949,0,1,1,9.7-9.717,1.81,1.81,0,1,0,3.037,1.972A36.687,36.687,0,0,0,92.512,59.031ZM47.043,16.418a2.537,2.537,0,0,1,2.535-2.535H62.613a2.535,2.535,0,1,1,0,5.069H49.578A2.537,2.537,0,0,1,47.043,16.418Zm4.67,9.963V22.573h8.765v3.8A36.888,36.888,0,0,0,51.713,26.381Z" transform="translate(0 -10.262)" fill="#4e4884"/>
      <path id="XMLID_391_" d="M437.58,425.5a1.811,1.811,0,1,0,1.28.53A1.82,1.82,0,0,0,437.58,425.5Z" transform="translate(-356.878 -350.325)" fill="#4e4884"/>
      <path id="XMLID_394_" d="M182.957,144.609a28.085,28.085,0,1,0,28.085,28.085A28.116,28.116,0,0,0,182.957,144.609Zm0,52.548a24.464,24.464,0,1,1,24.464-24.464A24.491,24.491,0,0,1,182.957,197.157Z" transform="translate(-126.834 -120.287)" fill="#4e4884"/>
      <path id="XMLID_397_" d="M278.077,219.941l-8.967,8.967a5.611,5.611,0,0,0-4.97,0l-4.013-4.013a1.81,1.81,0,1,0-2.56,2.56l4.013,4.013a5.626,5.626,0,1,0,10.091,0l8.7-8.7h0l.263-.263a1.81,1.81,0,1,0-2.56-2.56Zm-11.452,16.017a2,2,0,1,1,2-2A2.007,2.007,0,0,1,266.625,235.958Z" transform="translate(-210.502 -181.547)" fill="#4e4884"/>
      <path id="XMLID_398_" d="M401.143,289.86h-1.677a1.81,1.81,0,1,0,0,3.621h1.677a1.81,1.81,0,1,0,0-3.621Z" transform="translate(-325.663 -239.242)" fill="#4e4884"/>
      <path id="XMLID_399_" d="M196.57,289.616h-1.677a1.81,1.81,0,0,0,0,3.621h1.677a1.81,1.81,0,1,0,0-3.621Z" transform="translate(-158.126 -239.042)" fill="#4e4884"/>
      <path id="XMLID_400_" d="M301.933,188.117a1.81,1.81,0,0,0,1.81-1.81v-1.677a1.81,1.81,0,1,0-3.621,0v1.677A1.81,1.81,0,0,0,301.933,188.117Z" transform="translate(-245.789 -151.579)" fill="#4e4884"/>
      <path id="XMLID_424_" d="M301.689,387.393a1.81,1.81,0,0,0-1.81,1.81v1.677a1.81,1.81,0,0,0,3.621,0V389.2A1.81,1.81,0,0,0,301.689,387.393Z" transform="translate(-245.589 -319.117)" fill="#4e4884"/>
      <path id="XMLID_425_" d="M1.81,351.44a1.81,1.81,0,1,0,1.28,3.09,1.81,1.81,0,0,0-1.28-3.09Z" transform="translate(0 -289.673)" fill="#4e4884"/>
    </g>
  </g>
</svg>
