<svg xmlns="http://www.w3.org/2000/svg" width="97" height="89.411" viewBox="0 0 97 89.411">
  <g id="headset" transform="translate(0 -20.031)">
    <g id="Group_109" data-name="Group 109" transform="translate(0 20.586)">
      <g id="Group_108" data-name="Group 108">
        <path id="Path_161" data-name="Path 161" d="M90.559,65.441v-.977A42.125,42.125,0,0,0,56.018,23.078a1.895,1.895,0,1,0-.676,3.728A38.238,38.238,0,0,1,86.77,64.464v.57H82.98v-.57a34.48,34.48,0,0,0-68.961,0v.568H10.23v-.568a38.148,38.148,0,0,1,31.9-37.74,1.895,1.895,0,0,0-.628-3.737A42.123,42.123,0,0,0,6.441,64.464v.975A9.157,9.157,0,0,0,0,74.173V86.962A9.151,9.151,0,0,0,9.141,96.1h5.319a5.682,5.682,0,0,0,10.548-2.936v-25.2a5.683,5.683,0,0,0-7.133-5.5,30.69,30.69,0,0,1,61.25,0,5.683,5.683,0,0,0-7.133,5.5V72.7a1.895,1.895,0,0,0,3.789,0v-4.73a1.895,1.895,0,0,1,3.789,0v25.2a1.895,1.895,0,0,1-3.789,0V88.8a1.895,1.895,0,0,0-3.789,0v4.364a5.682,5.682,0,0,0,7.578,5.358v1.235a3.724,3.724,0,0,1-3.72,3.72H58.47a6.452,6.452,0,0,0-6.157-4.547H44.735a6.441,6.441,0,1,0,0,12.883h7.578a6.452,6.452,0,0,0,6.157-4.547H75.85a7.518,7.518,0,0,0,7.509-7.509V96.1h4.5A9.151,9.151,0,0,0,97,86.963V74.174A9.157,9.157,0,0,0,90.559,65.441ZM13.641,92.313h-4.5a5.358,5.358,0,0,1-5.352-5.352V74.173a5.358,5.358,0,0,1,5.352-5.352h4.5Zm5.684-26.239a1.9,1.9,0,0,1,1.895,1.895v25.2a1.895,1.895,0,0,1-3.789,0v-25.2A1.9,1.9,0,0,1,19.324,66.075Zm32.989,41.951H44.735a2.652,2.652,0,1,1,0-5.3h7.578a2.652,2.652,0,0,1,0,5.3Zm40.9-21.063a5.358,5.358,0,0,1-5.352,5.352h-4.5V68.823h4.5a5.358,5.358,0,0,1,5.352,5.352Z" transform="translate(0 -22.96)" fill="#e05e80"/>
      </g>
    </g>
    <g id="Group_111" data-name="Group 111" transform="translate(46.605 20.031)">
      <g id="Group_110" data-name="Group 110">
        <path id="Path_162" data-name="Path 162" d="M248.059,20.031h-.165a1.895,1.895,0,0,0,0,3.789h.158a1.895,1.895,0,0,0,.006-3.789Z" transform="translate(-246 -20.031)" fill="#e05e80"/>
      </g>
    </g>
    <g id="Group_113" data-name="Group 113" transform="translate(71.992 76.3)">
      <g id="Group_112" data-name="Group 112">
        <path id="Path_163" data-name="Path 163" d="M383.234,317.6a1.893,1.893,0,1,0,.555,1.339A1.908,1.908,0,0,0,383.234,317.6Z" transform="translate(-380 -317.04)" fill="#e05e80"/>
      </g>
    </g>
    <g id="Group_115" data-name="Group 115" transform="translate(28.797 53.382)">
      <g id="Group_114" data-name="Group 114">
        <path id="Path_164" data-name="Path 164" d="M182.721,196.067H160.685A8.7,8.7,0,0,0,152,204.752v11.083a8.7,8.7,0,0,0,8.685,8.685h5.246l4.279,5.34a1.9,1.9,0,0,0,1.464.71h.015a1.9,1.9,0,0,0,1.46-.687l4.436-5.362h5.138a8.7,8.7,0,0,0,8.685-8.685V204.752A8.7,8.7,0,0,0,182.721,196.067Zm4.9,19.768a4.9,4.9,0,0,1-4.9,4.9h-6.029a1.894,1.894,0,0,0-1.46.687l-3.521,4.256-3.393-4.234a1.9,1.9,0,0,0-1.478-.71h-6.156a4.9,4.9,0,0,1-4.9-4.9V204.752a4.9,4.9,0,0,1,4.9-4.9h22.036a4.9,4.9,0,0,1,4.9,4.9Z" transform="translate(-152 -196.067)" fill="#e05e80"/>
      </g>
    </g>
    <g id="Group_117" data-name="Group 117" transform="translate(38.294 66.661)">
      <g id="Group_116" data-name="Group 116">
        <path id="Path_165" data-name="Path 165" d="M205.364,266.715a1.893,1.893,0,1,0,.555,1.339A1.911,1.911,0,0,0,205.364,266.715Z" transform="translate(-202.13 -266.16)" fill="#e05e80"/>
      </g>
    </g>
    <g id="Group_119" data-name="Group 119" transform="translate(46.63 66.661)">
      <g id="Group_118" data-name="Group 118">
        <path id="Path_166" data-name="Path 166" d="M249.364,266.715a1.893,1.893,0,1,0,.555,1.339A1.909,1.909,0,0,0,249.364,266.715Z" transform="translate(-246.13 -266.16)" fill="#e05e80"/>
      </g>
    </g>
    <g id="Group_121" data-name="Group 121" transform="translate(54.966 66.661)">
      <g id="Group_120" data-name="Group 120">
        <path id="Path_167" data-name="Path 167" d="M293.364,266.715a1.893,1.893,0,1,0,.555,1.339A1.912,1.912,0,0,0,293.364,266.715Z" transform="translate(-290.13 -266.16)" fill="#e05e80"/>
      </g>
    </g>
  </g>
</svg>
