<svg xmlns="http://www.w3.org/2000/svg" width="127" height="77.213" viewBox="0 0 127 77.213">
  <g id="hood2" transform="translate(0 -100.358)">
    <g id="Group_153" data-name="Group 153" transform="translate(88.475 158.607)">
      <g id="Group_152" data-name="Group 152" transform="translate(0)">
        <path id="Path_184" data-name="Path 184" d="M114.188,335.189a5.823,5.823,0,1,1-5.823,5.823A5.829,5.829,0,0,1,114.188,335.189Zm0,7.926a2.1,2.1,0,1,0-2.1-2.1A2.1,2.1,0,0,0,114.188,343.115Z" transform="translate(-108.365 -335.189)" fill="#e05e80"/>
      </g>
    </g>
    <g id="Group_155" data-name="Group 155" transform="translate(26.015 158.607)">
      <g id="Group_154" data-name="Group 154" transform="translate(0)">
        <path id="Path_185" data-name="Path 185" d="M365.994,335.189a5.823,5.823,0,1,1-5.823,5.823A5.83,5.83,0,0,1,365.994,335.189Zm0,7.926a2.1,2.1,0,1,0-2.1-2.1A2.105,2.105,0,0,0,365.994,343.115Z" transform="translate(-360.171 -335.189)" fill="#e05e80"/>
      </g>
    </g>
    <g id="Group_157" data-name="Group 157" transform="translate(33.36 118.625)">
      <g id="Group_156" data-name="Group 156" transform="translate(0 0)">
        <path id="Path_186" data-name="Path 186" d="M163.435,186.641c.063-.1,5.429-8.775,5.5-8.871a9.257,9.257,0,0,1,7.14-3.768h21.779c7.042,0,10.313,3.964,10.916,4.787l6.208,8.448c1.9,2.64.954,5.869-3.378,5.869H167.527C162.583,193.105,161.66,189.533,163.435,186.641Zm27.678,2.745c21.876,0,20.585.006,20.822-.01l-6.164-8.389c-.244-.334-2.536-3.265-7.915-3.265h-6.742Zm-3.72,0V177.722H176.117a5.55,5.55,0,0,0-4.15,2.207c-5.756,9.3-5.53,8.847-5.63,9.313C166.9,189.44,166.178,189.386,187.392,189.386Z" transform="translate(-162.601 -174.002)" fill="#e05e80"/>
      </g>
    </g>
    <g id="Group_159" data-name="Group 159" transform="translate(89.856 100.358)">
      <g id="Group_158" data-name="Group 158">
        <path id="Path_187" data-name="Path 187" d="M53.059,102.066a1.86,1.86,0,1,1,3.707.306l-.182,2.21a18.315,18.315,0,0,1,19.3,1.244,1.86,1.86,0,0,1-2.165,3.025,14.6,14.6,0,0,0-15.088-1.143l1.468.5a1.86,1.86,0,0,1-1.2,3.52l-5.084-1.736a1.86,1.86,0,0,1-1.253-1.913Z" transform="translate(-52.557 -100.358)" fill="#e05e80"/>
      </g>
    </g>
    <g id="Group_161" data-name="Group 161" transform="translate(0 111.525)">
      <g id="Group_160" data-name="Group 160" transform="translate(0 0)">
        <path id="Path_188" data-name="Path 188" d="M241.22,165.224h19.186c.063-.1,9.351-15.109,9.422-15.2a11.408,11.408,0,0,1,8.778-4.643h3.1a1.86,1.86,0,1,1,0,3.72c-2.621,0-6.151-.477-8.842,3.081l-9.837,15.886a1.86,1.86,0,0,1-1.581.881H241.22a1.923,1.923,0,0,0-1.921,1.921v1.744h3.785a5.037,5.037,0,0,1,5.032,5.032v2.114a5.037,5.037,0,0,1-5.032,5.032H239.3v3.924a7.519,7.519,0,0,0,7.51,7.511h7.656a13.084,13.084,0,0,1,25.894-.056h21.925a1.86,1.86,0,1,1,0,3.72H280.407a13.081,13.081,0,0,1-25.973.056h-7.624a11.243,11.243,0,0,1-11.23-11.23V170.864A5.647,5.647,0,0,1,241.22,165.224Zm26.2,42.479a9.365,9.365,0,1,0-9.365-9.365A9.375,9.375,0,0,0,267.417,207.7ZM239.3,181.066h3.785a1.313,1.313,0,0,0,1.312-1.312V177.64a1.313,1.313,0,0,0-1.312-1.312H239.3Z" transform="translate(-235.579 -145.376)" fill="#e05e80"/>
      </g>
    </g>
    <g id="Group_163" data-name="Group 163" transform="translate(52.942 111.525)">
      <g id="Group_162" data-name="Group 162" transform="translate(0 0)">
        <path id="Path_189" data-name="Path 189" d="M1.86,145.377H18.185c6.476,0,11.394,2.832,13.66,5.97l8.27,11.254c.114-.081,14.978-10.666,15.093-10.747.871-.6,8.728-5.732,16.225-1.734a4.96,4.96,0,1,1-4.668,8.752c-1.641-.876-4.178.161-5.478.884l1.928,7.706c3.746.357,10.845,3.21,10.845,10.538v16.909a5.037,5.037,0,0,1-5.032,5.032c-13.216,0-12.33.023-12.858-.056H54.346a13.082,13.082,0,0,1-25.98,0H22.444a1.86,1.86,0,0,1,0-3.72h5.97a13.084,13.084,0,0,1,25.886,0c.192,0,2.1.056,14.728.056a1.313,1.313,0,0,0,1.312-1.312v-.249H65.3a1.86,1.86,0,0,1,0-3.72h5.037V189.3H66.553a5.038,5.038,0,0,1-5.032-5.032v-2.114a5.037,5.037,0,0,1,5.032-5.032h3.724c-.67-5.03-7.047-5.913-7.487-5.967-.152-.015-21.923-2.222-22.071-2.253-.875-.184-1.063-.646-2.518-2.625l-9.369-12.749c-.331-.454-3.44-4.434-10.648-4.434H1.86a1.86,1.86,0,0,1,0-3.72Zm39.5,43.6a9.365,9.365,0,1,0,9.365,9.365A9.375,9.375,0,0,0,41.356,188.974Zm25.2-8.128a1.313,1.313,0,0,0-1.312,1.312v2.114a1.313,1.313,0,0,0,1.312,1.312h3.785v-4.738Zm-7.274-13.783-1.259-5.034-6.029,4.293Zm-12.9-1.311c.046-.033,12.338-8.787,12.385-8.818,2.683-1.752,6.707-2.967,9.751-1.343h0a1.228,1.228,0,0,0,.943.092,1.242,1.242,0,0,0,.223-2.281c-5.559-2.964-11.687,1.05-12.385,1.53l-14.66,10.439Z" transform="translate(0 -145.377)" fill="#e05e80"/>
      </g>
    </g>
  </g>
</svg>
