<svg width="52" height="23" viewBox="0 0 52 23" fill="none" xmlns="http://www.w3.org/2000/svg">
<g clip-path="url(#clip0)">
<path d="M0.0519005 10.2201C0.0429152 12.2271 0.628994 14.1918 1.73602 15.8655C2.84305 17.5393 4.42131 18.8471 6.27122 19.6234C8.12113 20.3998 10.1596 20.6099 12.1289 20.2271C14.0981 19.8444 15.9097 18.886 17.3345 17.4732C18.7594 16.0603 19.7335 14.2565 20.1337 12.2898C20.5338 10.323 20.3421 8.28177 19.5827 6.42407C18.8234 4.56638 17.5304 2.97569 15.8674 1.85317C14.2045 0.730653 12.2461 0.126716 10.2401 0.117736C8.90801 0.111352 7.58772 0.367638 6.35467 0.871953C5.12162 1.37627 3.99998 2.11873 3.05384 3.0569C2.10769 3.99508 1.35559 5.11058 0.840505 6.33967C0.325419 7.56876 0.0574473 8.88735 0.0519005 10.2201ZM10.9641 10.3424C10.9612 10.9896 10.7665 11.6214 10.4047 12.1579C10.043 12.6944 9.53028 13.1115 8.93156 13.3565C8.33284 13.6015 7.67495 13.6633 7.04109 13.5342C6.40723 13.4051 5.82587 13.0909 5.37052 12.6312C4.91517 12.1715 4.60629 11.5871 4.48294 10.9518C4.35959 10.3165 4.4273 9.65888 4.67752 9.06207C4.92773 8.46527 5.34922 7.9561 5.88867 7.59896C6.42812 7.24181 7.0613 7.05274 7.70816 7.05563C8.57495 7.06148 9.40414 7.41058 10.0143 8.02655C10.6245 8.64252 10.966 9.47521 10.9641 10.3424Z" fill="#E05E80"/>
<path d="M22.5976 10.3199C22.5785 12.157 22.0418 13.9514 21.0493 15.4972C21.0274 15.5323 21.0154 15.5727 21.0146 15.6142C21.0138 15.6556 21.0243 15.6965 21.0449 15.7324C21.0655 15.7684 21.0954 15.7981 21.1316 15.8183C21.1677 15.8386 21.2086 15.8486 21.25 15.8474L24.9619 15.8641C25.0249 15.8632 25.0852 15.838 25.13 15.7936C25.1748 15.7491 25.2006 15.6891 25.202 15.626L25.2273 14.1349C25.264 14.135 27.9287 14.0548 28.7741 14.0405C28.8451 14.0393 28.9149 14.0224 28.9786 13.9909C29.0423 13.9594 29.0981 13.9141 29.1422 13.8584L30.6744 12.284C30.7408 12.2117 30.8305 12.165 30.9278 12.1521C31.0251 12.1391 31.1239 12.1606 31.207 12.2129L33.3301 13.6013C33.3966 13.6436 33.4744 13.6647 33.5531 13.6617C33.6319 13.6587 33.7078 13.6318 33.7709 13.5846L35.7621 12.1023C35.834 12.0573 35.9171 12.0336 36.0019 12.034C36.0867 12.0344 36.1697 12.0588 36.2412 12.1044L38.3115 13.3823C38.3523 13.4096 38.4002 13.4242 38.4492 13.4245C38.4982 13.4247 38.5463 13.4104 38.5873 13.3835L40.6334 11.9771C40.7123 11.922 40.807 11.8942 40.9031 11.898C40.9992 11.9018 41.0914 11.937 41.1657 11.9981L43.2178 13.3127C43.2517 13.3396 43.2937 13.3544 43.3371 13.3546C43.3804 13.3548 43.4226 13.3404 43.4568 13.3137L45.3898 12.4585C45.4648 12.3966 45.5591 12.3629 45.6564 12.3633C45.7536 12.3637 45.8476 12.3983 45.9221 12.4609L47.737 13.3696C47.7942 13.4232 47.8696 13.4531 47.9479 13.4535C48.0263 13.4538 48.1019 13.4246 48.1596 13.3715L51.0379 10.7555C51.1448 10.658 51.2089 10.5223 51.2164 10.3778C51.2239 10.2332 51.1742 10.0916 51.0781 9.98348L50.459 9.26756C50.4451 9.25181 50.4283 9.23895 50.4094 9.22973C50.3905 9.22051 50.37 9.2151 50.3491 9.21381L25.3227 9.10177L25.2172 8.0718L49.6191 8.18105L48.4112 7.11046C48.3879 7.08553 48.3594 7.06597 48.3277 7.05314C48.2961 7.04031 48.262 7.03451 48.2279 7.03614C46.631 7.02899 26.2699 6.9192 25.2228 6.93315C25.2129 6.9341 25.2029 6.93284 25.1936 6.92946C25.1842 6.92608 25.1757 6.92065 25.1687 6.91359C25.1617 6.90652 25.1564 6.89799 25.1531 6.8886C25.1498 6.87922 25.1486 6.86922 25.1497 6.85932C25.1508 6.60209 25.1361 5.71952 25.1204 5.18633C25.1216 5.13055 25.1116 5.07509 25.0909 5.02327C25.0702 4.97145 25.0393 4.92431 25.0001 4.88468C24.9608 4.84505 24.914 4.81373 24.8624 4.79258C24.8108 4.77143 24.7554 4.76088 24.6996 4.76157L21.3556 4.7466C21.3146 4.74608 21.2742 4.75644 21.2385 4.77662C21.2028 4.7968 21.1731 4.82609 21.1524 4.8615C21.1317 4.89691 21.1207 4.93718 21.1206 4.9782C21.1205 5.01923 21.1313 5.05955 21.1518 5.09507C22.1234 6.66242 22.6252 8.47574 22.5976 10.3199Z" fill="#4E4884"/>
</g>
<defs>
<clipPath id="clip0">
<rect width="21.8121" height="51.211" fill="white" transform="translate(0 21.8119) rotate(-89.7435)"/>
</clipPath>
</defs>
</svg>
