<svg xmlns="http://www.w3.org/2000/svg" width="96" height="85.875" viewBox="0 0 96 85.875">
  <g id="safe-box" transform="translate(0 -27)">
    <g id="Group_141" data-name="Group 141" transform="translate(0 27)">
      <g id="Group_140" data-name="Group 140">
        <path id="Path_177" data-name="Path 177" d="M89.625,27H6.375A6.382,6.382,0,0,0,0,33.375V106.5a6.382,6.382,0,0,0,6.375,6.375H61.5a1.875,1.875,0,0,0,0-3.75H6.375A2.628,2.628,0,0,1,3.75,106.5V33.375A2.628,2.628,0,0,1,6.375,30.75h83.25a2.628,2.628,0,0,1,2.625,2.625V106.5a2.628,2.628,0,0,1-2.625,2.625H75.563a1.875,1.875,0,0,0,0,3.75H89.625A6.382,6.382,0,0,0,96,106.5V33.375A6.382,6.382,0,0,0,89.625,27Z" transform="translate(0 -27)" fill="#4e4884"/>
      </g>
    </g>
    <g id="Group_143" data-name="Group 143" transform="translate(66.75 109.125)">
      <g id="Group_142" data-name="Group 142">
        <path id="Path_178" data-name="Path 178" d="M359.2,465.549a1.874,1.874,0,1,0,.549,1.326A1.889,1.889,0,0,0,359.2,465.549Z" transform="translate(-356 -465)" fill="#4e4884"/>
      </g>
    </g>
    <g id="Group_145" data-name="Group 145" transform="translate(30.508 36)">
      <g id="Group_144" data-name="Group 144">
        <path id="Path_179" data-name="Path 179" d="M165.911,75.549a1.874,1.874,0,1,0,.549,1.326A1.889,1.889,0,0,0,165.911,75.549Z" transform="translate(-162.71 -75)" fill="#4e4884"/>
      </g>
    </g>
    <g id="Group_147" data-name="Group 147" transform="translate(9 36)">
      <g id="Group_146" data-name="Group 146">
        <path id="Path_180" data-name="Path 180" d="M124.125,106.89A1.875,1.875,0,0,0,126,105.015v-15a1.875,1.875,0,0,0-1.875-1.875H122.25V76.875A1.875,1.875,0,0,0,120.375,75H78.938a1.875,1.875,0,0,0,0,3.75H118.5v9.39h-1.875a1.875,1.875,0,0,0-1.875,1.875v15a1.875,1.875,0,0,0,1.875,1.875H118.5v6h-1.875a1.875,1.875,0,0,0-1.875,1.875v15a1.875,1.875,0,0,0,1.875,1.875H118.5v7.485H51.75V122.063h5.625a1.875,1.875,0,0,0,1.875-1.875v-22.5a1.875,1.875,0,0,0-1.875-1.875H51.75V78.75h12a1.875,1.875,0,0,0,0-3.75H49.875A1.875,1.875,0,0,0,48,76.875V141a1.875,1.875,0,0,0,1.875,1.875h70.5A1.875,1.875,0,0,0,122.25,141v-9.36h1.875A1.875,1.875,0,0,0,126,129.765v-15a1.875,1.875,0,0,0-1.875-1.875H122.25v-6ZM51.75,99.563H55.5v18.75H51.75Zm70.5,28.327H118.5V116.64h3.75Zm-3.75-24.75V91.89h3.75v11.25Z" transform="translate(-48 -75)" fill="#4e4884"/>
      </g>
    </g>
    <g id="Group_149" data-name="Group 149" transform="translate(24.72 48.563)">
      <g id="Group_148" data-name="Group 148">
        <path id="Path_181" data-name="Path 181" d="M153.228,142a21.375,21.375,0,1,0,21.39,21.375A21.407,21.407,0,0,0,153.228,142Zm0,39a17.625,17.625,0,1,1,17.64-17.625A17.653,17.653,0,0,1,153.228,181Z" transform="translate(-131.838 -142)" fill="#4e4884"/>
      </g>
    </g>
    <g id="Group_151" data-name="Group 151" transform="translate(30.656 54.484)">
      <g id="Group_150" data-name="Group 150">
        <path id="Path_182" data-name="Path 182" d="M192.532,187.159h-1.346a12.31,12.31,0,0,0-2.262-5.444l.957-.957a1.875,1.875,0,0,0-2.652-2.652l-.957.957a12.311,12.311,0,0,0-5.444-2.262v-1.346a1.875,1.875,0,0,0-3.75,0V176.8a12.31,12.31,0,0,0-5.444,2.262l-.957-.957a1.875,1.875,0,0,0-2.652,2.652l.957.957a12.311,12.311,0,0,0-2.262,5.444h-1.345a1.875,1.875,0,0,0,0,3.75h1.346a12.31,12.31,0,0,0,2.262,5.444l-.957.957a1.875,1.875,0,1,0,2.652,2.652l.957-.957a12.311,12.311,0,0,0,5.444,2.262v1.346a1.875,1.875,0,0,0,3.75,0v-1.346A12.31,12.31,0,0,0,186.272,199l.957.957a1.875,1.875,0,1,0,2.652-2.652l-.957-.957a12.311,12.311,0,0,0,2.262-5.444h1.346a1.875,1.875,0,0,0,0-3.75Zm-13.578,10.5a8.625,8.625,0,1,1,8.625-8.625A8.635,8.635,0,0,1,178.954,197.659Z" transform="translate(-163.5 -173.58)" fill="#4e4884"/>
      </g>
    </g>
  </g>
</svg>
