<svg width="117" height="104" viewBox="0 0 117 104" fill="none" xmlns="http://www.w3.org/2000/svg">
<g clip-path="url(#clip0)">
<path d="M0.431051 13.8432L2.59401 18.1152L21.2524 7.9072V102.47H25.897V3.9104L22.4932 1.776L0.431051 13.8432Z" fill="white"/>
<path d="M83.5688 99.2528C65.6339 99.2528 54.9269 82.0336 54.9269 53.1888C54.9269 30.0048 60.352 20.1248 60.4043 20.0368L60.5845 19.6496C60.6383 19.4992 66.2143 4.7152 83.5688 4.7152C100.819 4.7152 106.336 19.0448 106.559 19.6496L106.733 20.0256C106.786 20.1248 112.214 30.0064 112.214 53.1904C112.214 82.0336 101.507 99.2528 83.5688 99.2528V99.2528ZM83.5688 -0.112C64.273 -0.112 57.1622 15.6832 56.3263 17.728C55.5165 19.2288 50.2823 29.88 50.2823 53.1888C50.2823 85.056 62.7259 104.08 83.5688 104.08C104.415 104.08 116.858 85.056 116.858 53.1888C116.858 29.8768 111.624 19.2288 110.816 17.728C109.98 15.6832 102.866 -0.112 83.5703 -0.112H83.5688Z" fill="white"/>
</g>
<defs>
<clipPath id="clip0">
<rect width="117" height="104" fill="white"/>
</clipPath>
</defs>
</svg>
