<svg width="101" height="103" viewBox="0 0 101 103" fill="none" xmlns="http://www.w3.org/2000/svg">
<g clip-path="url(#clip0)">
<path d="M41.4451 54.8828C41.4509 54.8771 41.4547 54.8694 41.4605 54.8636L75.5315 20.7936C75.7004 20.6247 75.8314 20.4218 75.9158 20.1983C76.0001 19.9748 76.0359 19.7359 76.0207 19.4975C76.0055 19.2591 75.9397 19.0267 75.8277 18.8158C75.7157 18.6048 75.56 18.4201 75.371 18.274C68.261 12.7469 59.5056 9.75851 50.5 9.78509C39.7055 9.7973 29.3566 14.0908 21.7237 21.7237C14.0908 29.3566 9.7973 39.7055 9.78509 50.5C9.75806 59.5054 12.7465 68.2606 18.274 75.37C18.4201 75.559 18.6047 75.7148 18.8156 75.827C19.0265 75.9391 19.2589 76.0051 19.4973 76.0206H19.6049C19.8257 76.0205 20.0443 75.977 20.2483 75.8924C20.4523 75.8078 20.6376 75.6838 20.7936 75.5276L41.4297 54.8953L41.4451 54.8828ZM36.38 55.1884L23.0499 41.6113L42.1158 22.8913L55.2749 36.2935L53.7566 37.8118L45.7328 29.6438C45.5781 29.4861 45.3938 29.3605 45.1905 29.2741C44.9872 29.1877 44.7689 29.1422 44.548 29.1403C44.3266 29.1342 44.1063 29.1736 43.9008 29.2563C43.6953 29.339 43.509 29.463 43.3535 29.6208C43.0054 29.9617 42.5362 30.1507 42.0489 30.1462C41.5616 30.1417 41.096 29.9441 40.7542 29.5967C40.5996 29.4391 40.4155 29.3135 40.2124 29.2271C40.0092 29.1407 39.7911 29.0952 39.5703 29.0932C39.1266 29.0993 38.701 29.2706 38.3768 29.5737L29.7985 37.9953C29.6409 38.15 29.5153 38.3343 29.4289 38.5375C29.3425 38.7408 29.2969 38.9591 29.2949 39.1799C29.2928 39.4008 29.3343 39.6199 29.4169 39.8247C29.4995 40.0295 29.6217 40.216 29.7764 40.3737C29.9457 40.5459 30.0793 40.7499 30.1697 40.9738C30.26 41.1977 30.3054 41.4373 30.3032 41.6788C30.3009 41.9203 30.2512 42.1589 30.1567 42.3812C30.0622 42.6034 29.9248 42.8048 29.7524 42.9739C29.4344 43.2866 29.2536 43.7128 29.2496 44.1587C29.2457 44.6047 29.4189 45.034 29.7313 45.3523L37.8993 53.6711L36.38 55.1884ZM33.1128 43.9973C33.4679 43.2861 33.6562 42.5033 33.6634 41.7084C33.6706 40.9134 33.4964 40.1273 33.1541 39.4098L39.727 32.9571C40.4374 33.3144 41.2207 33.5029 42.0159 33.5078C42.8099 33.5101 43.5946 33.3365 44.3135 32.9994L51.3754 40.1901L40.2766 51.2918L33.1128 43.9973ZM19.7981 71.7684C15.4456 65.5322 13.1234 58.1049 13.1484 50.5C13.1596 40.5972 17.0984 31.1031 24.1008 24.1008C31.1032 17.0984 40.5972 13.1596 50.5 13.1484C58.1051 13.1247 65.5324 15.4479 71.7685 19.8009L57.6532 33.9152L43.3353 19.3349C43.1805 19.1773 42.9962 19.0518 42.7929 18.9654C42.5896 18.8791 42.3713 18.8336 42.1505 18.8317C41.9296 18.8297 41.7106 18.8713 41.5058 18.954C41.301 19.0367 41.1145 19.159 40.957 19.3137L19.4934 40.39C19.3358 40.5447 19.2102 40.7289 19.1238 40.9322C19.0374 41.1354 18.9918 41.3537 18.9898 41.5746C18.9877 41.7954 19.0292 42.0145 19.1118 42.2193C19.1944 42.4242 19.3166 42.6107 19.4713 42.7683L34.0017 57.5667L19.7981 71.7684Z" fill="white"/>
<path d="M82.726 25.63C82.5801 25.4407 82.3955 25.2848 82.1845 25.1726C81.9735 25.0604 81.741 24.9945 81.5026 24.9793C81.2641 24.9641 81.0251 25 80.8016 25.0845C80.5781 25.169 80.3752 25.3003 80.2064 25.4695L63.4621 42.2129L63.4525 42.2215L63.4419 42.234L59.5694 46.1056L59.5549 46.1172L59.5405 46.1354L25.4686 80.2064C25.2996 80.3753 25.1687 80.5783 25.0843 80.8017C24.9999 81.0252 24.9642 81.2641 24.9794 81.5025C24.9945 81.7409 25.0603 81.9733 25.1724 82.1842C25.2844 82.3952 25.4401 82.5799 25.629 82.726C32.739 88.2531 41.4944 91.2415 50.5 91.2149C61.2945 91.2027 71.6435 86.9092 79.2763 79.2763C86.9092 71.6434 91.2027 61.2945 91.2149 50.5C91.242 41.4946 88.2535 32.7394 82.726 25.63V25.63ZM47.2434 63.1844L55.2672 71.3523C55.422 71.51 55.6063 71.6356 55.8096 71.722C56.0129 71.8084 56.2312 71.8539 56.4521 71.8559H56.4674C56.9082 71.8564 57.3317 71.6839 57.6465 71.3754C57.9955 71.036 58.4637 70.847 58.9505 70.8488C59.1921 70.8503 59.431 70.8998 59.6534 70.9943C59.8757 71.0888 60.0771 71.2265 60.2458 71.3994C60.4004 71.557 60.5845 71.6826 60.7877 71.769C60.9908 71.8554 61.209 71.9009 61.4297 71.903H61.4461C61.8863 71.9035 62.3091 71.731 62.6232 71.4225L71.2015 63.0008C71.3591 62.8461 71.4847 62.6619 71.5712 62.4586C71.6576 62.2554 71.7031 62.0371 71.7052 61.8162C71.7072 61.5954 71.6658 61.3763 71.5831 61.1715C71.5005 60.9667 71.3783 60.7801 71.2236 60.6225C71.0544 60.4502 70.9208 60.2463 70.8304 60.0224C70.74 59.7984 70.6946 59.5589 70.6969 59.3174C70.6991 59.0759 70.7489 58.8372 70.8434 58.615C70.9379 58.3928 71.0753 58.1913 71.2476 58.0222C71.5656 57.7095 71.7465 57.2834 71.7504 56.8374C71.7544 56.3915 71.5811 55.9622 71.2688 55.6439L63.1008 47.3251L64.6191 45.8068L77.9502 59.3887L58.8842 78.1087L45.7251 64.7055L47.2434 63.1844ZM60.7234 49.7082L67.8843 57.0027C67.5292 57.7139 67.3409 58.4967 67.3338 59.2916C67.3266 60.0866 67.5008 60.8727 67.843 61.5902L61.2702 68.0429C60.5598 67.6855 59.7765 67.497 58.9813 67.4923C58.1853 67.4735 57.3966 67.648 56.6827 68.0006L49.6217 60.8089L60.7234 49.7082ZM50.5 87.8516C42.8949 87.8754 35.4676 85.5522 29.2316 81.1991L43.3468 67.0848L57.6648 81.6651C57.9778 81.9833 58.4042 82.1643 58.8506 82.1687H58.8602C59.3007 82.1692 59.7238 81.9966 60.0383 81.6882L81.5066 60.61C81.6642 60.4553 81.7898 60.2711 81.8763 60.0678C81.9627 59.8646 82.0082 59.6463 82.0103 59.4254C82.0123 59.2046 81.9709 58.9855 81.8882 58.7807C81.8056 58.5758 81.6834 58.3893 81.5287 58.2317L66.9984 43.4333L81.1991 29.2325C85.5524 35.4682 87.8756 42.8951 87.8517 50.5C87.8405 60.4028 83.9016 69.8969 76.8993 76.8992C69.8969 83.9016 60.4029 87.8405 50.5 87.8516V87.8516Z" fill="white"/>
<path d="M50.5 -0.189453C40.4746 -0.189453 30.6743 2.78343 22.3385 8.35326C14.0026 13.9231 7.50564 21.8397 3.66907 31.102C-0.16749 40.3643 -1.17131 50.5562 0.784553 60.389C2.74042 70.2218 7.56812 79.2538 14.6572 86.3429C21.7462 93.4319 30.7782 98.2596 40.611 100.215C50.4438 102.171 60.6358 101.168 69.898 97.3309C79.1603 93.4944 87.0769 86.9974 92.6468 78.6615C98.2166 70.3257 101.189 60.5254 101.189 50.5C101.174 37.061 95.8288 24.1768 86.326 14.674C76.8232 5.17119 63.939 -0.174193 50.5 -0.189453V-0.189453ZM50.5 97.8262C41.1398 97.8262 31.9898 95.0505 24.207 89.8503C16.4243 84.65 10.3583 77.2587 6.77634 68.6109C3.19434 59.9632 2.25712 50.4475 4.08321 41.2671C5.9093 32.0867 10.4167 23.654 17.0354 17.0353C23.654 10.4167 32.0868 5.90928 41.2671 4.08319C50.4475 2.2571 59.9632 3.19431 68.611 6.77632C77.2587 10.3583 84.65 16.4242 89.8503 24.207C95.0506 31.9897 97.8262 41.1398 97.8262 50.5C97.812 63.0473 92.8212 75.0766 83.9489 83.9489C75.0767 92.8212 63.0473 97.8119 50.5 97.8262V97.8262Z" fill="white"/>
</g>
<defs>
<clipPath id="clip0">
<rect width="101" height="103" fill="white"/>
</clipPath>
</defs>
</svg>
