<svg width="96" height="112" viewBox="0 0 96 112" fill="none" xmlns="http://www.w3.org/2000/svg">
<g clip-path="url(#clip0)">
<path d="M91.1485 45.3572C91.1485 68.3435 80.4925 83.5451 71.5534 92.2507C61.4066 102.13 50.5586 106.518 48.1475 106.518C45.7364 106.518 34.8884 102.13 24.7402 92.2507C15.8011 83.5451 5.14506 68.3435 5.14506 45.3572V23.2338C20.2852 18.9598 34.3833 12.9975 48.1475 5.0483C61.5694 12.786 76.3715 19.0455 91.1485 23.231V45.3572ZM94.1245 19.2018C78.7297 15.0094 63.2459 8.48159 49.344 0.324944C48.9816 0.11206 48.5684 -0.000244141 48.1475 -0.000244141C47.7265 -0.000244141 47.3133 0.11206 46.951 0.324944C32.6484 8.71665 18.0007 14.8905 2.17045 19.2018C1.67315 19.3372 1.2344 19.6313 0.921691 20.0388C0.608979 20.4463 0.439621 20.9445 0.439667 21.457V45.3572C0.439667 69.9696 11.8637 86.2594 21.4484 95.5913C31.7635 105.64 43.7844 111.198 48.1475 111.198C52.5106 111.198 64.5301 105.641 74.848 95.5927C84.4327 86.2608 95.8567 69.971 95.8567 45.3586V21.457C95.8567 20.4034 95.1471 19.4797 94.1245 19.2018V19.2018Z" fill="white"/>
<path d="M27.2863 22.9711C27.1731 22.6852 27.0043 22.4242 26.7897 22.2032C26.575 21.9822 26.3186 21.8053 26.0351 21.6828C25.7516 21.5603 25.4466 21.4945 25.1375 21.4892C24.8284 21.4839 24.5213 21.5392 24.2338 21.6519C20.0129 23.3041 15.7342 24.8067 11.4059 26.1568C10.9279 26.306 10.5103 26.6029 10.2138 27.0043C9.91724 27.4057 9.75731 27.8906 9.75723 28.3885V37.4204C9.77217 38.0309 10.0267 38.6113 10.4664 39.0379C10.9061 39.4644 11.4962 39.7031 12.1106 39.7031C12.7251 39.7031 13.3151 39.4644 13.7549 39.0379C14.1946 38.6113 14.4491 38.0309 14.464 37.4204V30.0976C18.3277 28.8559 22.1871 27.4815 25.959 26.0047C26.2466 25.8923 26.5092 25.7245 26.7316 25.5112C26.954 25.2978 27.1319 25.043 27.2552 24.7612C27.3785 24.4795 27.4447 24.1764 27.45 23.8692C27.4553 23.562 27.3997 23.2568 27.2863 22.9711V22.9711Z" fill="white"/>
<path d="M31.7566 23.4149C32.0724 23.4149 32.3938 23.3513 32.6999 23.2186L32.7444 23.1992C33.0271 23.0759 33.2826 22.8983 33.4963 22.6767C33.7099 22.4552 33.8775 22.1939 33.9894 21.9079C34.1013 21.6219 34.1554 21.3167 34.1485 21.0099C34.1416 20.7031 34.0739 20.4007 33.9493 20.1199C33.6968 19.5521 33.2282 19.107 32.6461 18.882C32.064 18.657 31.4159 18.6706 30.8439 18.9197L30.8049 18.9363C30.5221 19.0592 30.2665 19.2364 30.0527 19.4576C29.8388 19.6788 29.671 19.9397 29.5587 20.2255C29.4464 20.5112 29.3919 20.8161 29.3983 21.1228C29.4046 21.4295 29.4718 21.7319 29.5959 22.0128C29.9826 22.8922 30.848 23.4149 31.7566 23.4149V23.4149Z" fill="white"/>
<path d="M76.1878 75.423C75.6656 75.0844 75.0294 74.9655 74.419 75.0925C73.8086 75.2195 73.2739 75.5821 72.9322 76.1006C70.9491 79.1055 68.6841 81.9172 66.1677 84.4978C64.0713 86.653 61.8148 88.6484 59.4171 90.467C58.94 90.8497 58.632 91.4022 58.5585 92.0071C58.485 92.612 58.6519 93.2215 59.0236 93.706C59.3953 94.1905 59.9425 94.5118 60.5489 94.6016C61.1553 94.6913 61.773 94.5424 62.2706 94.1865C64.8565 92.225 67.2903 90.0729 69.5513 87.7486C72.2751 84.9557 74.7264 81.9126 76.8724 78.66C77.0414 78.4029 77.1579 78.1152 77.2151 77.8134C77.2722 77.5115 77.269 77.2014 77.2056 76.9008C77.1421 76.6003 77.0197 76.315 76.8453 76.0615C76.6709 75.8079 76.448 75.5909 76.1892 75.423H76.1878Z" fill="white"/>
<path d="M53.9506 94.1353L53.8157 94.2141C53.2896 94.5319 52.9097 95.0418 52.7575 95.6346C52.6052 96.2274 52.6927 96.8559 53.0011 97.3854C53.3095 97.9149 53.8144 98.3033 54.4075 98.4673C55.0005 98.6312 55.6347 98.5578 56.1739 98.2627L56.3298 98.1714C56.5995 98.0177 56.836 97.8124 57.0254 97.5674C57.2149 97.3223 57.3536 97.0424 57.4336 96.7437C57.5136 96.4451 57.5333 96.1337 57.4915 95.8275C57.4497 95.5212 57.3473 95.2263 57.1902 94.9596C57.033 94.6929 56.8243 94.4598 56.576 94.2738C56.3277 94.0877 56.0448 93.9524 55.7436 93.8756C55.4424 93.7989 55.1288 93.7822 54.8211 93.8265C54.5134 93.8708 54.2175 93.9753 53.9506 94.1339V94.1353Z" fill="white"/>
<path d="M67.52 39.1101C68.0752 38.5571 68.8139 38.2529 69.6028 38.2529C70.3903 38.2529 71.1291 38.5571 71.6856 39.1101C72.2374 39.6597 72.5473 40.4044 72.5473 41.1808C72.5473 41.9571 72.2374 42.7018 71.6856 43.2514L42.6741 72.0838C42.1176 72.6368 41.3774 72.941 40.5899 72.941C39.8039 72.941 39.0637 72.6368 38.5072 72.0838L24.6094 58.2732C24.058 57.7237 23.7484 56.9793 23.7484 56.2033C23.7484 55.4272 24.058 54.6828 24.6094 54.1333C25.1659 53.5803 25.9061 53.2761 26.6936 53.2761C27.4811 53.2761 28.2199 53.5803 28.7764 54.1333L38.9259 64.2189C39.3674 64.6573 39.9659 64.9035 40.5899 64.9035C41.214 64.9035 41.8125 64.6573 42.2539 64.2189L67.52 39.1101ZM32.1044 50.8245C31.3952 50.1162 30.5517 49.5547 29.6227 49.1726C28.6937 48.7905 27.6976 48.5953 26.6922 48.5983C24.6498 48.5983 22.727 49.3879 21.2814 50.8245C19.8483 52.2522 19.0435 54.1866 19.0435 56.2033C19.0435 58.2199 19.8483 60.1543 21.2814 61.582L35.1792 75.3926C35.8884 76.1009 36.7319 76.6623 37.6609 77.0444C38.5899 77.4265 39.5859 77.6218 40.5913 77.6188C42.6352 77.6188 44.5566 76.8292 46.0035 75.3926L75.015 46.5588C76.448 45.1313 77.2528 43.1972 77.2528 41.1808C77.2528 39.1643 76.448 37.2302 75.015 35.8027C74.3058 35.0944 73.4623 34.5329 72.5333 34.1508C71.6043 33.7686 70.6082 33.5735 69.6028 33.5765C67.5576 33.5765 65.6362 34.366 64.1906 35.8027L40.5899 59.2563L32.1044 50.8245Z" fill="white"/>
</g>
<defs>
<clipPath id="clip0">
<rect width="96" height="112" fill="white"/>
</clipPath>
</defs>
</svg>
